<?xml version="1.0" encoding="UTF-8"?>
<svg version="1.1" xmlns="http://www.w3.org/2000/svg" width="408" height="555">
<path d="M0 0 C134.64 0 269.28 0 408 0 C408 183.15 408 366.3 408 555 C273.36 555 138.72 555 0 555 C0 371.85 0 188.7 0 0 Z " fill="#FEFEFE" transform="translate(0,0)"/>
<path d="M0 0 C2.02350324 3.03525486 2.32124018 4.19426202 2.625 7.6875 C2.73714844 8.89986328 2.73714844 8.89986328 2.8515625 10.13671875 C2.90054688 10.75160156 2.94953125 11.36648437 3 12 C3.49628906 11.61328125 3.99257813 11.2265625 4.50390625 10.828125 C15.54545455 2.36363636 15.54545455 2.36363636 21.375 1.5 C28.00948377 2.41510121 34.23214948 5.23214948 39 10 C42.94958619 15.44402421 43.54241113 19.35546361 43 26 C43.556875 26.08636719 44.11375 26.17273438 44.6875 26.26171875 C51.38462981 27.49480515 57.23915012 29.49241902 61.57421875 35 C65.02718359 40.38227184 66.34850655 44.49454446 66 51 C63.54476664 54.68285005 62.2152075 54.94619813 58 56 C54.625 56.125 54.625 56.125 52 56 C52.33 56.66 52.66 57.32 53 58 C53.66446168 66.53577697 53.0598601 71.97846958 47.8125 78.875 C44.75644413 81.18401999 42.82996444 81.6664685 39.00390625 81.44140625 C35.69830354 80.71327154 33.62580412 79.1006433 31 77 C31.144375 78.155 31.28875 79.31 31.4375 80.5 C31.41181952 85.33649069 29.49456478 87.79876131 26.171875 91.16796875 C19.21153144 97.03919381 12.90579586 98.55553519 3.8828125 98.56640625 C0.33823976 97.86997936 -0.85653891 96.87304292 -3 94 C-3.77129356 91.29058418 -3.81083322 88.83750169 -4 86 C-4.99 86.495 -4.99 86.495 -6 87 C-13.20981766 87.72935137 -18.066698 87.21923698 -24 83 C-23.45859375 83.89138672 -23.45859375 83.89138672 -22.90625 84.80078125 C-19.28998849 91.25982612 -17.92170828 96.6108641 -19 104 C-19.61363491 105.68691269 -20.26741211 107.36123913 -21 109 C-19.824375 109.04125 -18.64875 109.0825 -17.4375 109.125 C-12.30797288 109.78775306 -9.29915562 112.10632649 -6 116 C-2.82732528 121.00898039 -0.88970795 126.03912734 -0.75 132 C-0.71132813 132.99 -0.71132813 132.99 -0.671875 134 C-1.10043183 136.61215593 -2.31013876 138.00774254 -4 140 C-3.14619751 140.15819214 -3.14619751 140.15819214 -2.27514648 140.31958008 C0.33904555 140.80886168 2.95070576 141.31058287 5.5625 141.8125 C6.90538086 142.0609668 6.90538086 142.0609668 8.27539062 142.31445312 C14.59119246 143.5405978 20.3605423 144.83429112 25.4375 149 C27.85461326 153.64085747 27.83096228 157.88155167 27 163 C25.31136344 167.21847583 23.21576078 170.78423922 20 174 C21.25554687 174.02578125 22.51109375 174.0515625 23.8046875 174.078125 C41.52405068 174.60735181 41.52405068 174.60735181 49 179 C49.73605469 179.4228125 50.47210938 179.845625 51.23046875 180.28125 C56.60098208 183.80289808 59.3562169 187.79471881 61 194 C62.10390139 200.76139603 60.39164612 205.17060824 57 211 C58.01320313 211.02578125 59.02640625 211.0515625 60.0703125 211.078125 C61.42191597 211.13444181 62.77347681 211.19178833 64.125 211.25 C64.79015625 211.26417969 65.4553125 211.27835938 66.140625 211.29296875 C71.20139612 211.54104577 74.14579544 212.7463089 78 216 C82.71920057 221.62371402 82.5740107 226.18554778 82.40625 233.2734375 C81.88052798 238.09592604 80.50529144 241.87297972 78 246 C78.99 246.27972656 79.98 246.55945313 81 246.84765625 C89.83150634 249.47284639 97.17186979 252.01100546 102.36328125 260.1328125 C105.366892 266.0574605 106.22612993 271.7468618 104.375 278.16796875 C101.98732932 283.84934585 98.30112559 286.19160082 93 289 C92.01 289.66 91.02 290.32 90 291 C90.72445313 291.25394531 91.44890625 291.50789063 92.1953125 291.76953125 C106.16083916 296.74125874 106.16083916 296.74125874 109 301 C109.93312963 308.32398256 109.55866334 315.00669849 105 321 C99.75283621 326.70174481 93.69325281 329.83435564 86 331 C89.23960315 334.63945341 92.94704336 336.84201106 97.1875 339.125 C103.86880165 342.73760331 103.86880165 342.73760331 105 345 C105.97979829 350.59884736 103.56822657 354.18618142 100.625 358.73046875 C96.02957387 365.14859996 90.39083048 366.29143674 83 368 C83.48210937 368.47050781 83.96421875 368.94101562 84.4609375 369.42578125 C85.40839844 370.35970703 85.40839844 370.35970703 86.375 371.3125 C87.00148438 371.92738281 87.62796875 372.54226563 88.2734375 373.17578125 C90.65759445 375.69478871 91.91307309 377.48930441 92.5 380.9375 C92.32692591 386.71075718 89.27895632 392.38517258 86 397 C80.94579873 400.58513373 76.08160595 400.42313533 70.125 400.3125 C69.26519531 400.31572266 68.40539062 400.31894531 67.51953125 400.32226562 C62.03051489 400.27645441 57.27001044 399.534539 52 398 C52.71027344 399.05960937 53.42054688 400.11921875 54.15234375 401.2109375 C55.08078995 402.59891768 56.00917204 403.98694074 56.9375 405.375 C57.40607422 406.07367188 57.87464844 406.77234375 58.35742188 407.4921875 C58.80537109 408.1625 59.25332031 408.8328125 59.71484375 409.5234375 C60.12855225 410.14138184 60.54226074 410.75932617 60.96850586 411.39599609 C63.37129422 415.13240308 63.69610241 418.65340705 63 423 C60.15151521 427.71780294 57.34259838 429.90149381 52.0859375 431.5234375 C43.42959605 433.50110352 36.94050008 430.38923784 29 427 C29.15726562 427.75539063 29.31453125 428.51078125 29.4765625 429.2890625 C30.26680739 433.38182333 30.97261087 437.07423048 29.0234375 440.93359375 C26.74330093 444.29784433 24.89717378 446.55554293 21 448 C14.80643879 448.21786396 9.48780485 446.74390242 4 444 C4.10441406 445.01707031 4.10441406 445.01707031 4.2109375 446.0546875 C4.66396152 453.84238621 2.900151 458.90759815 -2 465 C-6.07464184 467.71642789 -9.21258241 467.760266 -14 467 C-18.3314724 465.16797787 -22.09983696 462.60010869 -26 460 C-26.06316406 460.58007812 -26.12632812 461.16015625 -26.19140625 461.7578125 C-27.10255904 467.57000818 -28.66413828 470.33705462 -33.34375 473.90625 C-37.00689325 476.32530686 -39.60667379 476.27290519 -44 476 C-46.60477673 475.16862791 -48.90890025 474.31256257 -51.375 473.1875 C-52.05183838 472.88634277 -52.72867676 472.58518555 -53.42602539 472.27490234 C-61.62513972 468.46961219 -71.56741388 463.43258612 -78 457 C-78.4021875 458.6396875 -78.4021875 458.6396875 -78.8125 460.3125 C-80.33333333 465.03508772 -80.33333333 465.03508772 -83 467 C-93.93560568 469.43935362 -103.00690227 464.60755139 -112 459 C-118.84963711 454.48193377 -122.82928317 448.54246277 -126 441 C-126 440.01 -126 439.02 -126 438 C-126.70092773 438.53052979 -126.70092773 438.53052979 -127.41601562 439.07177734 C-132.84552327 442.86150974 -136.94173688 443.80781543 -143.5 443.625 C-144.36496094 443.61170654 -145.22992188 443.59841309 -146.12109375 443.5847168 C-151.97003944 443.37268178 -157.40112643 442.51131473 -163 440.8125 C-163.65162109 440.61672363 -164.30324219 440.42094727 -164.97460938 440.21923828 C-170.09919088 438.44251701 -172.33402768 435.71399465 -175.09326172 431.21899414 C-176.26837513 428.34322522 -176.2257317 426.02463293 -176.1953125 422.921875 C-176.18886719 421.76171875 -176.18242187 420.6015625 -176.17578125 419.40625 C-176.15902344 418.1996875 -176.14226562 416.993125 -176.125 415.75 C-176.11597656 414.52796875 -176.10695312 413.3059375 -176.09765625 412.046875 C-176.07409513 409.03105218 -176.04119706 406.01562508 -176 403 C-176.78503906 403.5053125 -177.57007813 404.010625 -178.37890625 404.53125 C-189.33588974 411.30710237 -189.33588974 411.30710237 -195 410 C-203.38144495 406.61389624 -208.43245899 399.07469729 -211.9375 391 C-213.88565169 384.96072976 -214.05371424 378.68036783 -211.5 372.8125 C-207.14265605 365.24448156 -200.09148711 360.79971607 -192 358 C-188.9375 357.25 -188.9375 357.25 -187 357 C-187 356.34 -187 355.68 -187 355 C-194.4451158 350.64530963 -202.37108003 348.11034749 -210.59838867 345.67553711 C-215.89327354 344.02672322 -219.51008404 342.56483874 -223 338 C-224.00847257 332.6550954 -222.58007071 329.26246119 -219.6328125 324.92578125 C-216.86910418 321.66619225 -213.55254638 319.3336811 -210 317 C-209.01 316.34 -208.02 315.68 -207 315 C-208.51980469 314.25556641 -208.51980469 314.25556641 -210.0703125 313.49609375 C-225.10957483 305.94369119 -225.10957483 305.94369119 -228 300 C-228.78532356 296.40060033 -228.68669645 294.36787726 -227.02734375 291.0625 C-222.91083539 284.91774116 -217.02801703 281.10670043 -211 277 C-209.66077768 276.00790053 -208.32507663 275.01091527 -207 274 C-207.70125 273.443125 -208.4025 272.88625 -209.125 272.3125 C-229.23089701 256.14036545 -229.23089701 256.14036545 -231.75 243.125 C-231.25533741 235.55047902 -225.36338947 227.98368048 -220 223 C-220.56589844 222.72285156 -221.13179687 222.44570313 -221.71484375 222.16015625 C-222.44832031 221.79792969 -223.18179688 221.43570313 -223.9375 221.0625 C-224.66839844 220.70285156 -225.39929688 220.34320313 -226.15234375 219.97265625 C-228 219 -228 219 -229 218 C-230.56874859 209.0640903 -227.14799769 200.7347441 -223 193 C-218.1240435 187.0500024 -212.91072916 184.26504594 -205.33984375 183.4609375 C-204.52765381 183.37376465 -203.71546387 183.2865918 -202.87866211 183.19677734 C-202.25870361 183.13184082 -201.63874512 183.0669043 -201 183 C-201.39380859 182.42556152 -201.78761719 181.85112305 -202.19335938 181.25927734 C-203.97670903 178.64070801 -205.73839965 176.0082446 -207.5 173.375 C-208.12003906 172.47136719 -208.74007812 171.56773437 -209.37890625 170.63671875 C-209.96542969 169.75371094 -210.55195313 168.87070313 -211.15625 167.9609375 C-211.70087891 167.15446777 -212.24550781 166.34799805 -212.80664062 165.51708984 C-214.26001578 162.45156247 -214.30727843 160.35787035 -214 157 C-211.67706209 151.82618375 -208.33743331 149.37576057 -203.34765625 147.03515625 C-196.13829676 144.80589106 -188.49482268 144.51555762 -181 144 C-181.62575928 143.80446533 -182.25151855 143.60893066 -182.89624023 143.4074707 C-184.12129272 143.01434692 -184.12129272 143.01434692 -185.37109375 142.61328125 C-186.18247803 142.35587158 -186.9938623 142.09846191 -187.82983398 141.83325195 C-190 141 -190 141 -192.0625 139.1875 C-193.41543201 136.03065865 -193.58392835 134.43868919 -193 131 C-187.54924983 120.40776207 -177.82383541 111.13551384 -166.515625 107.1171875 C-164.69651854 106.65918552 -162.84940183 106.31404937 -161 106 C-161.05800781 105.38253906 -161.11601562 104.76507813 -161.17578125 104.12890625 C-161.69553714 94.37234568 -157.81977871 88.92003651 -151.625 81.6875 C-143.10323914 72.57218366 -134.12724425 70.74568816 -122 70 C-122.84304687 69.24074219 -123.68609375 68.48148437 -124.5546875 67.69921875 C-125.66161209 66.69548204 -126.76837447 65.69156642 -127.875 64.6875 C-128.70837891 63.93823242 -128.70837891 63.93823242 -129.55859375 63.17382812 C-132.06788023 60.8912844 -134.10906778 58.83639832 -136 56 C-135.9142227 52.05424418 -135.30189005 50.36059089 -132.75 47.3125 C-123.40214522 39.45180394 -112.80087379 39.66229614 -101 40 C-101.03480469 39.39671875 -101.06960937 38.7934375 -101.10546875 38.171875 C-101.13253906 37.37265625 -101.15960938 36.5734375 -101.1875 35.75 C-101.22230469 34.96109375 -101.25710937 34.1721875 -101.29296875 33.359375 C-100.91643514 30.32702429 -100.23856685 29.08402144 -98 27 C-87.18834622 24.75080373 -76.19655573 28.76299818 -66 32 C-66.32355469 31.41992188 -66.64710938 30.83984375 -66.98046875 30.2421875 C-69.02241519 25.75147005 -68.47278402 21.39054124 -66.9375 16.875 C-63.57100225 11.87955172 -58.97286296 7.49321574 -53 6 C-46.96329726 5.31659969 -42.95810331 6.74770917 -38 10 C-35.21996627 12.21927479 -32.58259002 14.55478179 -30 17 C-29.78085938 16.40832031 -29.56171875 15.81664062 -29.3359375 15.20703125 C-26.83974407 8.98684192 -24.2633825 5.05674898 -18 2.03515625 C-12.28803747 -0.17822923 -6.07300279 -1.05888254 0 0 Z " fill="#0A0A0A" transform="translate(266,43)"/>
<path d="M0 0 C0.95841797 -0.02900391 1.91683594 -0.05800781 2.90429688 -0.08789062 C8.902252 -0.14177688 12.23013079 0.353333 16.8125 4.3125 C20.4086243 8.26823674 20.26424706 12.42590166 20.0859375 17.53515625 C19.47464651 23.74412621 17.80287104 27.7211765 13.25 32.0625 C6.24916772 37.64528049 -0.81543831 39.96900006 -9.7578125 39.65234375 C-12.78320008 39.22917861 -14.83657869 38.25809005 -17.1875 36.3125 C-16.74929109 31.75512737 -16.33708831 28.73596555 -13.1875 25.3125 C-11.328125 25.49609375 -11.328125 25.49609375 -9.1875 26.3125 C-7.921875 28.59765625 -7.921875 28.59765625 -6.9375 31.375 C-6.60234375 32.29410156 -6.2671875 33.21320313 -5.921875 34.16015625 C-5.67953125 34.87042969 -5.4371875 35.58070312 -5.1875 36.3125 C0.57846611 36.1101854 4.23291321 35.2654943 8.4375 31.16796875 C10.47072841 28.42426564 11.20300995 26.23208549 11.34765625 22.82421875 C10.03408704 16.65907275 5.36761658 11.18488943 0.37109375 7.5234375 C-7.95697581 3.5819084 -17.8349486 6.79943724 -26.078125 9.6875 C-35.47556846 13.24618934 -44.16295602 18.29409202 -52.1875 24.3125 C-53.1775 24.6425 -54.1675 24.9725 -55.1875 25.3125 C-55.49494141 26.95798828 -55.49494141 26.95798828 -55.80859375 28.63671875 C-56.08071293 30.09114887 -56.35284925 31.54557578 -56.625 33 C-56.82706055 34.0818457 -56.82706055 34.0818457 -57.03320312 35.18554688 C-57.16533203 35.89130859 -57.29746094 36.59707031 -57.43359375 37.32421875 C-57.55404053 37.96834717 -57.6744873 38.61247559 -57.79858398 39.27612305 C-58.0820657 40.76044258 -58.39544148 42.23914454 -58.72631836 43.71362305 C-59.21866139 46.48810242 -59.31697212 49.06591936 -59.3203125 51.8828125 C-59.32224609 53.47609375 -59.32224609 53.47609375 -59.32421875 55.1015625 C-59.32035156 56.20242187 -59.31648437 57.30328125 -59.3125 58.4375 C-59.31636719 59.51515625 -59.32023438 60.5928125 -59.32421875 61.703125 C-59.30324652 79.11007726 -57.10486384 92.49105371 -46.40527344 106.65771484 C-44.80495429 108.83232655 -43.3416869 111.09419538 -41.84936523 113.34350586 C-36.25953272 121.61373295 -29.40080474 128.39178727 -22.23828125 135.3046875 C-19.67056154 137.79648001 -17.25769918 140.33240297 -14.94140625 143.05859375 C-11.91471038 146.58636397 -8.6740294 149.85907022 -5.3515625 153.10546875 C-4.82372665 153.62304749 -4.29589081 154.14062622 -3.75205994 154.67388916 C-1.56192622 156.81910327 0.62978604 158.96234591 2.83691406 161.09008789 C12.82047074 170.73322847 20.72811402 180.85560056 27.25 193.1875 C32.2627445 202.35490152 37.98006341 211.00352534 44.09375 219.47265625 C54.22072464 233.57553818 61.76223887 248.70765685 66.8125 265.3125 C67.15152344 266.39144531 67.49054688 267.47039062 67.83984375 268.58203125 C71.41786601 281.16281919 69.74142151 292.68191098 66.625 305.1875 C66.29982026 306.52126591 65.97487086 307.855088 65.65014648 309.18896484 C61.29776328 326.88428693 55.81153826 340.18281418 44.1875 354.375 C43.7445459 354.92365723 43.3015918 355.47231445 42.84521484 356.03759766 C39.84765491 359.57553781 36.97279975 361.36385385 32.8125 363.3125 C32.52375 364.075625 32.235 364.83875 31.9375 365.625 C29.14284299 372.30112509 20.42953812 375.85363842 14.50634766 379.57104492 C10.48426415 382.13175381 6.69505632 384.88958774 2.93481445 387.81958008 C-5.30769712 394.23848256 -13.64318271 399.0935985 -23.1875 403.3125 C-24.78464844 404.05113281 -24.78464844 404.05113281 -26.4140625 404.8046875 C-54.09574582 416.64824315 -79.91874323 410.39432801 -107.046875 401.05859375 C-110.33340259 399.92877284 -113.62745642 398.8562947 -116.953125 397.84765625 C-142.10844613 390.13307244 -161.7411756 375.36237091 -174.25561523 351.91088867 C-176.01182582 348.42745395 -177.60211485 344.87622902 -179.1875 341.3125 C-179.66251953 340.26384766 -180.13753906 339.21519531 -180.62695312 338.13476562 C-193.47602604 309.65026569 -198.81102954 283.39738517 -198.625 252.125 C-198.62229095 251.05354736 -198.61958191 249.98209473 -198.61679077 248.87817383 C-198.55499833 232.74538514 -197.99306096 217.0670329 -194.1875 201.3125 C-193.98962891 200.49040039 -193.79175781 199.66830078 -193.58789062 198.82128906 C-191.29136816 189.6612116 -188.10684588 180.90577846 -184.1875 172.3125 C-183.69765625 171.23613281 -183.2078125 170.15976563 -182.703125 169.05078125 C-180.01729123 163.23786958 -177.26295233 157.46080977 -174.46875 151.69921875 C-166.34867314 135.18364338 -166.34867314 135.18364338 -160.20703125 117.8671875 C-153.11084613 93.73503448 -135.43958769 73.72589136 -116.1875 58.3125 C-114.17943417 56.6551712 -112.18326778 54.98462976 -110.1875 53.3125 C-109.5275 53.6425 -108.8675 53.9725 -108.1875 54.3125 C-111.63719795 57.8592207 -115.09060973 61.2593368 -118.9375 64.375 C-124.39510016 69.0816513 -128.57718272 74.85745497 -132.88867188 80.59179688 C-134.05032125 82.13076394 -135.23464603 83.65255401 -136.421875 85.171875 C-144.38522641 95.60448266 -149.36428894 107.07327683 -153.61547852 119.38867188 C-155.05665252 123.50908133 -156.67203195 127.36058187 -158.69140625 131.234375 C-161.27680688 136.28632966 -162.96874902 141.35889802 -164.5 146.8125 C-164.78633301 147.8113623 -165.07266602 148.81022461 -165.36767578 149.83935547 C-174.22857051 180.92972243 -174.22857051 180.92972243 -177.42773438 212.8684082 C-177.43735564 214.84533819 -177.46851444 216.82212546 -177.5 218.79882812 C-177.53024499 226.33361243 -176.76552521 232.93548585 -174.87792969 240.21948242 C-173.76763877 245.19341299 -173.74815123 250.11036453 -173.6875 255.1875 C-172.85979665 281.53234637 -162.46440922 304.39868291 -151.29101562 327.97070312 C-150.30170302 330.07014703 -149.34181784 332.17998341 -148.390625 334.296875 C-144.43839336 342.7659428 -139.41004245 349.72436962 -133.42431641 356.82910156 C-132.39200029 358.06722883 -131.39968739 359.33856941 -130.41796875 360.6171875 C-123.29298607 369.60007706 -112.70464073 375.62291215 -102.875 381.25 C-101.92572632 381.79805298 -101.92572632 381.79805298 -100.95727539 382.35717773 C-81.03189265 393.41650141 -51.42380459 394.85407152 -29.6875 389.75 C-27.16077461 388.9802871 -24.68200472 388.17124422 -22.1875 387.3125 C-20.4913632 386.77323453 -18.79471422 386.2355783 -17.09765625 385.69921875 C-4.33043393 381.58639232 -4.33043393 381.58639232 6.8125 374.3125 C7.61429688 373.65636719 8.41609375 373.00023437 9.2421875 372.32421875 C14.64599876 367.700593 19.21843034 362.69290623 23.59765625 357.09765625 C25.8125 354.3125 25.8125 354.3125 28.05859375 351.87109375 C41.77222513 336.68390059 52.02159917 309.99531723 52 289.5625 C51.99991943 288.8494873 51.99983887 288.13647461 51.99975586 287.40185547 C51.95049452 282.84803384 51.51859168 278.74917622 50.30078125 274.375 C49.74694864 272.03561106 49.66374947 269.83748736 49.5625 267.4375 C49.11031959 262.33097983 47.14410658 258.97999863 44.55078125 254.62890625 C42.37812512 250.48377129 40.90598795 246.22610482 39.375 241.8125 C36.6768699 234.22400908 33.5765392 227.85222654 28.8125 221.3125 C27.7823911 219.84086678 26.75389066 218.36810701 25.7265625 216.89453125 C24.59032178 215.28259791 23.45228784 213.67192715 22.3125 212.0625 C21.77866699 211.30509521 21.24483398 210.54769043 20.69482422 209.76733398 C17.11838175 204.80732419 13.23778438 200.52310026 8.8125 196.3125 C8.03648437 195.53519531 7.26046875 194.75789062 6.4609375 193.95703125 C4.11670244 191.61625376 1.76609758 189.28215151 -0.5859375 186.94921875 C-2.24485698 185.29954484 -3.90370932 183.64980342 -5.5625 182 C-6.3875 181.18337891 -7.2125 180.36675781 -8.0625 179.52539062 C-12.98724405 174.62018921 -17.67354541 169.59639579 -22.1875 164.3125 C-28.21474711 157.47376487 -28.21474711 157.47376487 -34.625 151 C-47.16133994 138.37779471 -54.37318983 123.11242503 -62.1875 107.3125 C-62.90728027 105.88043213 -62.90728027 105.88043213 -63.64160156 104.41943359 C-68.2318653 95.28087999 -72.49973043 86.49939493 -74.1875 76.3125 C-74.37183594 75.23355469 -74.55617188 74.15460938 -74.74609375 73.04296875 C-75.24961883 68.78751341 -75.29766003 64.65340463 -75.25 60.375 C-75.24548828 59.59576172 -75.24097656 58.81652344 -75.23632812 58.01367188 C-75.22466908 56.11324732 -75.20673877 54.21286294 -75.1875 52.3125 C-74.5275 52.3125 -73.8675 52.3125 -73.1875 52.3125 C-73.19797363 51.71711426 -73.20844727 51.12172852 -73.21923828 50.50830078 C-73.26073949 47.81807657 -73.28680704 45.12791963 -73.3125 42.4375 C-73.32925781 41.50035156 -73.34601563 40.56320313 -73.36328125 39.59765625 C-73.36972656 38.70175781 -73.37617188 37.80585937 -73.3828125 36.8828125 C-73.39328613 36.05539551 -73.40375977 35.22797852 -73.41455078 34.37548828 C-73.1875 32.3125 -73.1875 32.3125 -71.1875 30.3125 C-71.23132813 29.35988281 -71.27515625 28.40726563 -71.3203125 27.42578125 C-71.1875 24.3125 -71.1875 24.3125 -69.4921875 22.29296875 C-66.74418715 20.26510354 -63.99477367 18.25817018 -61.1875 16.3125 C-60.64689941 15.92594238 -60.10629883 15.53938477 -59.54931641 15.14111328 C-47.22615267 6.37250242 -35.22772898 3.01548557 -20.1875 1.3125 C-19.5174292 1.22637451 -18.8473584 1.14024902 -18.15698242 1.05151367 C-12.10264922 0.30508903 -6.09733991 0.06226011 0 0 Z " fill="#FAFAFA" transform="translate(276.1875,69.6875)"/>
<path d="M0 0 C3.86291044 3.75678653 7.39573913 7.70039281 10.875 11.8125 C11.93455859 13.05757873 12.99445263 14.30237209 14.0546875 15.546875 C14.5609668 16.14177734 15.06724609 16.73667969 15.58886719 17.34960938 C17.37383807 19.43722238 19.18353476 21.5022667 21 23.5625 C23.41796186 26.31152754 25.74537301 29.11407745 28 32 C27.505 32.99 27.505 32.99 27 34 C23.18757886 33.10295973 21.49813344 31.58853044 19.3125 28.5 C14.14836016 21.21179236 6.74010272 11.99003514 -2 9 C-6.69774068 8.6156394 -10.51722435 9.0958685 -14.5625 11.5625 C-16.6161788 15.04482493 -16.73179571 17.97693571 -17 22 C-19.97 21.67 -22.94 21.34 -26 21 C-29.97073336 25.59116045 -30.4884158 28.95371974 -30.2734375 34.96484375 C-29.81698991 40.03141204 -28.97538094 45.00988143 -28 50 C-26.35 50.33 -24.7 50.66 -23 51 C-22.88679144 45.91696314 -22.88679144 45.91696314 -24 41 C-24.06970052 38.60509014 -24.08448003 36.20832309 -24.0625 33.8125 C-24.05347656 32.54019531 -24.04445312 31.26789063 -24.03515625 29.95703125 C-24.02355469 28.98121094 -24.01195312 28.00539063 -24 27 C-23.22914063 27.0721875 -22.45828125 27.144375 -21.6640625 27.21875 C-20.66117188 27.3115625 -19.65828125 27.404375 -18.625 27.5 C-17.12839844 27.63921875 -17.12839844 27.63921875 -15.6015625 27.78125 C-13.10296264 28.02792947 -13.10296264 28.02792947 -11 28 C-11.01160156 27.14535156 -11.02320313 26.29070312 -11.03515625 25.41015625 C-11.04417969 24.30542969 -11.05320313 23.20070313 -11.0625 22.0625 C-11.07410156 20.96035156 -11.08570313 19.85820312 -11.09765625 18.72265625 C-11 16 -11 16 -10 15 C-6.76163338 14.41120607 -5.12313786 14.19632609 -2 15 C3.13145437 18.61775101 7.29316352 22.96013703 11 28 C10.3716626 28.05881348 9.7433252 28.11762695 9.09594727 28.17822266 C1.63195252 29.21729059 -2.03785206 31.91558725 -7.0625 37.375 C-7.74715332 38.09018799 -8.43180664 38.80537598 -9.13720703 39.54223633 C-21.0156154 51.49741704 -21.0156154 51.49741704 -26.125 66.8125 C-26.08375 67.864375 -26.0425 68.91625 -26 70 C-24.68 70 -23.36 70 -22 70 C-21.814375 68.865625 -21.62875 67.73125 -21.4375 66.5625 C-20.00653131 60.96604027 -16.7538979 57.27676225 -13 53 C-12.13375 52.01257813 -11.2675 51.02515625 -10.375 50.0078125 C-7.64544213 46.94310456 -4.83990553 43.96284516 -2 41 C-0.89205078 39.83404297 -0.89205078 39.83404297 0.23828125 38.64453125 C4.95159799 34.05934351 4.95159799 34.05934351 9.3125 33.8125 C13.38443992 35.12380269 17.38308282 36.56253048 21.3515625 38.16015625 C24.12683334 39.04022001 26.11350446 39.38913506 29 39 C29.66 38.01 30.32 37.02 31 36 C31.825 37.010625 32.65 38.02125 33.5 39.0625 C35.73035535 41.68797658 37.99350651 43.86146909 40.6875 46 C54.86253056 58.1191101 67.45925305 79.27912822 70.4375 97.70703125 C70.8044977 104.80614301 68.32426668 111.37999043 66 118 C63.22337091 116.67799703 60.7277283 115.20382342 58.21484375 113.43359375 C57.51939453 112.94826172 56.82394531 112.46292969 56.10742188 111.96289062 C54.65635495 110.94283368 53.20583705 109.92199531 51.75585938 108.90039062 C51.06169922 108.41634766 50.36753906 107.93230469 49.65234375 107.43359375 C49.02320068 106.99072021 48.39405762 106.54784668 47.74584961 106.09155273 C43.75932762 103.59907059 39.55382344 103.42264024 35 104 C28.55069533 106.07468441 24.16878377 109.7848638 21.03125 115.8828125 C18.6565031 121.48985379 17.86989177 126.89220238 20 132.75 C20.495 133.86375 20.495 133.86375 21 135 C21 136.32 21 137.64 21 139 C14.375 138.25 14.375 138.25 11 136 C11.66 135.34 12.32 134.68 13 134 C13.24560017 131.24858941 13.24560017 131.24858941 13.125 128.03125 C13.10953125 126.81953125 13.0940625 125.6078125 13.078125 124.359375 C13.026674 121.81769545 12.9746064 119.2760283 12.921875 116.734375 C12.72785828 101.40705423 12.72785828 101.40705423 15 96 C19.23848423 92.11726124 22.96306418 92.56141672 28.50390625 92.734375 C41.21156503 93.6998731 51.44160697 98.95447995 60.15625 108.31640625 C62.07617136 110.44953764 62.07617136 110.44953764 66 110 C65.21281166 103.71358047 61.50091009 100.19402986 57 96 C47.97657814 89.59923937 35.20061447 87.86680431 24.4375 87.8125 C23.15746094 87.79832031 21.87742188 87.78414063 20.55859375 87.76953125 C17.08133484 87.99473243 14.95985055 88.18455564 12 90 C8.67095601 94.88310572 8.08710938 100.21046996 7.3125 105.9375 C7.18294922 106.80568359 7.05339844 107.67386719 6.91992188 108.56835938 C5.85364015 116.03233144 5.67246086 122.55119598 7.5 129.9375 C7.7784375 131.08089844 8.056875 132.22429687 8.34375 133.40234375 C8.5603125 134.25957031 8.776875 135.11679687 9 136 C-3.46829654 132.14328116 -11.09012248 122.18284355 -17.23828125 111.08984375 C-23.83674132 98.57504933 -28.08723511 85.5967533 -31.10546875 71.8125 C-31.88588047 68.12422833 -31.88588047 68.12422833 -33.05078125 65.1875 C-36.069715 55.04984592 -35.12068605 43.79586884 -35.0625 33.3125 C-35.05747247 31.72461079 -35.05291179 30.13672004 -35.04882812 28.54882812 C-35.03792755 24.69917975 -35.02073283 20.84960747 -35 17 C-34.01 17 -33.02 17 -32 17 C-31.79375 15.783125 -31.5875 14.56625 -31.375 13.3125 C-30.74269371 9.58189291 -28.98849517 7.31352623 -26.00146484 4.98364258 C-21.81877871 2.92801408 -17.17409366 3.49673156 -12.625 3.6875 C-11.09166016 3.72133789 -11.09166016 3.72133789 -9.52734375 3.75585938 C-7.01670419 3.81451918 -4.50912621 3.89654072 -2 4 C-1.34 2.68 -0.68 1.36 0 0 Z " fill="#F6F6F6" transform="translate(191,271)"/>
<path d="M0 0 C0.66 0 1.32 0 2 0 C2.32162109 0.73001221 2.64324219 1.46002441 2.97460938 2.2121582 C4.46975017 5.58502306 5.98471483 8.94863976 7.5 12.3125 C8.0053125 13.46041016 8.510625 14.60832031 9.03125 15.79101562 C12.56840497 23.59486378 16.73470379 30.25632102 22 37 C22.66660645 37.89710693 23.33321289 38.79421387 24.02001953 39.71850586 C32.25586539 50.77553836 42.99163187 57.66338089 55 64 C55.57049072 64.31912354 56.14098145 64.63824707 56.72875977 64.96704102 C63.022166 68.34927954 69.74182754 70.26705965 76.5625 72.3125 C79.17487186 73.09765846 81.78675427 73.88442926 84.3984375 74.671875 C85.04856308 74.86697159 85.69868866 75.06206818 86.36851501 75.26307678 C90.31835187 76.45780911 94.21589311 77.75242258 98.1015625 79.140625 C125.52746695 88.74288916 152.44189648 84.53433646 178.25390625 72.48046875 C185.33543285 68.90929399 191.50034535 64.52840862 197.75292969 59.70483398 C206.71821768 52.82146594 216.27827719 46.75752516 226 41 C227.62558319 43.27041785 229.25048802 45.54131589 230.875 47.8125 C231.56529297 48.77639648 231.56529297 48.77639648 232.26953125 49.75976562 C232.71425781 50.38173828 233.15898437 51.00371094 233.6171875 51.64453125 C234.02565918 52.21534424 234.43413086 52.78615723 234.85498047 53.37426758 C238.01702166 57.8638267 238.01702166 57.8638267 237.75 60 C237 62 237 62 235 65 C228.22068578 67.25977141 223.47946122 66.42917602 217.25292969 63.4453125 C215.93258062 62.78095353 214.62032191 62.10022927 213.31738281 61.40234375 C210.32223345 59.84593298 208.45504476 58.95606049 205.046875 59.28515625 C204.03367187 59.63900391 204.03367187 59.63900391 203 60 C202.89885872 64.77700001 202.89885872 64.77700001 203.5 69.5 C204.28584315 73.42921577 204.92136702 77.31986015 202.9375 80.9375 C199.83227315 82.64036634 197.49616736 82.34388531 194 82 C191.91066474 81.31016255 189.89551237 80.50838781 187.859375 79.67578125 C185.4591324 78.80342417 183.52379104 78.62885426 181 79 C178.098796 81.901204 178.76277067 84.20915371 178.6875 88.25 C178.32430689 96.6402583 178.32430689 96.6402583 175.8125 100 C173 102 173 102 170.2734375 101.93359375 C166.08130226 100.73798477 163.24911668 98.67755624 159.8125 96.0625 C158.58994024 95.15742173 157.36728734 94.25246926 156.14453125 93.34765625 C155.10683594 92.57292969 154.06914062 91.79820312 153 91 C150.28450846 88.69328085 150.28450846 88.69328085 147.8125 89.375 C147.214375 89.58125 146.61625 89.7875 146 90 C146.165 90.763125 146.33 91.52625 146.5 92.3125 C146.92944966 95.47969123 147.16538444 98.49749329 147.25 101.6875 C147.28867187 103.08548828 147.28867187 103.08548828 147.328125 104.51171875 C147 107 147 107 145.984375 108.83203125 C142.76601871 110.72630001 139.57828018 110.51861489 136 110 C133.29303073 109.15450173 130.87221357 107.95975548 128.375 106.625 C127.69203857 106.27139404 127.00907715 105.91778809 126.30541992 105.5534668 C118.15429674 101.20538527 109.63448005 96.03036895 103.41796875 89.13671875 C102.62003906 88.43160156 101.82210937 87.72648437 101 87 C99.35 87.33 97.7 87.66 96 88 C95.67 92.62 95.34 97.24 95 102 C87.11966701 102 87.11966701 102 83.9921875 100.390625 C83.31542969 100.04773438 82.63867188 99.70484375 81.94140625 99.3515625 C81.25949219 98.98804688 80.57757813 98.62453125 79.875 98.25 C79.18535156 97.90195312 78.49570313 97.55390625 77.78515625 97.1953125 C69.39957982 92.86623862 64.85623437 87.85528047 60.75 79.4375 C59.79166693 76.32291752 59.38013184 73.23112065 59 70 C57.22010103 69.14584126 57.22010103 69.14584126 55 69 C52.85834476 70.60946282 52.85834476 70.60946282 50.9375 72.875 C47.83943595 76.2882222 46.12017038 77.80639163 41.390625 78.23828125 C32.54644202 78.44728557 20.68573457 77.98326036 13.62890625 71.984375 C11.09578824 68.89846624 10.872257 67.12692168 10.8671875 63.203125 C10.86589844 62.2440625 10.86460938 61.285 10.86328125 60.296875 C10.86714844 59.29140625 10.87101562 58.2859375 10.875 57.25 C10.86919922 55.765 10.86919922 55.765 10.86328125 54.25 C10.86981449 49.36313822 11.12209139 44.82051638 12 40 C10.3959472 38.3959472 8.71890543 38.71403016 6.5 38.625 C1.40856542 38.63954696 -1.64876283 40.05640195 -5.796875 42.90625 C-8.77204299 44.38328376 -10.71805872 44.44928792 -14 44 C-19.89461394 39.44741726 -24.13586611 32.95654153 -25.4140625 25.625 C-25.83323424 20.53283963 -25.1968233 17.57150246 -21.875 13.625 C-16.47769846 8.27079069 -11.51485823 5.59983663 -4.171875 3.80859375 C-1.65109238 3.11171485 -1.65109238 3.11171485 0 0 Z " fill="#FBFBFB" transform="translate(85,402)"/>
<path d="M0 0 C-0.58281645 3.53544167 -1.50454001 6.35129943 -3.15234375 9.52734375 C-3.59441162 10.39125732 -4.03647949 11.2551709 -4.49194336 12.14526367 C-4.96897705 13.06670166 -5.44601074 13.98813965 -5.9375 14.9375 C-9.92888303 22.78553306 -13.7867238 30.67493761 -17.4375 38.6875 C-17.83767334 39.55818115 -18.23784668 40.4288623 -18.65014648 41.32592773 C-22.91309585 50.74933678 -26.32719819 60.20744252 -28.5625 70.3125 C-28.77156982 71.25762451 -28.98063965 72.20274902 -29.19604492 73.17651367 C-33.20580446 91.88098101 -34.51798885 109.88958304 -34 129 C-33.97921387 129.95438965 -33.95842773 130.9087793 -33.93701172 131.89208984 C-33.45957187 152.22395407 -30.94593676 171.53668182 -25 191 C-24.65392802 192.33008386 -24.312078 193.66153214 -24 195 C-24.82564453 194.58041016 -24.82564453 194.58041016 -25.66796875 194.15234375 C-35.4199174 189.45024138 -45.71107993 186.30546423 -56 183 C-56.2421875 177.3125 -56.2421875 177.3125 -54.0625 174.5 C-47.66784079 169.27987003 -42.2098326 165.49269684 -34 164 C-33.91458389 161.59087497 -33.91458389 161.59087497 -35 159 C-37.51782161 157.62443921 -39.77327116 156.61177367 -42.4375 155.625 C-56.46472901 149.94955055 -56.46472901 149.94955055 -61 145 C-61.54790448 141.98414317 -61.40167675 140.60797598 -59.70703125 138.04296875 C-54.53478778 132.97736947 -48.98259297 129.40497321 -42.66015625 125.95703125 C-39.86825072 124.22941496 -39.86825072 124.22941496 -38.84375 121.53515625 C-38.76125077 118.85249156 -38.76125077 118.85249156 -40.80859375 116.7890625 C-41.67613281 116.07492187 -42.54367188 115.36078125 -43.4375 114.625 C-44.35917969 113.84640625 -45.28085937 113.0678125 -46.23046875 112.265625 C-47.14441406 111.51796875 -48.05835938 110.7703125 -49 110 C-63.41811298 97.82134959 -63.41811298 97.82134959 -64.4375 89.375 C-64.36611436 83.84771182 -61.47846331 80.08900191 -58 76 C-54.1059949 72.28711141 -51.33911451 71.78338101 -46.125 71.75 C-44.41582604 71.81380916 -42.70686635 71.89066337 -41 72 C-41 70.68 -41 69.36 -41 68 C-47.87619244 65.06158371 -54.74839665 62.819794 -62 61 C-63.88827864 55.1005259 -61.22354706 50.57630755 -58.71484375 45.2734375 C-55.46719604 39.0740553 -55.46719604 39.0740553 -51 37 C-43.97734918 36.32393253 -36.92847746 36.68029001 -30 38 C-30.34552363 31.83980725 -33.39323093 27.89274394 -36.8125 23 C-37.34681641 22.21882813 -37.88113281 21.43765625 -38.43164062 20.6328125 C-40.36428852 17.80872185 -42.30140151 14.98837859 -44.27661133 12.19384766 C-46.99325072 8.28346979 -46.99325072 8.28346979 -47.0625 5.375 C-45.57645229 2.0532463 -44.12673434 0.88906866 -41 -1 C-27.92195364 -5.8225296 -13.24507037 -2.34970625 0 0 Z " fill="#FAFAFA" transform="translate(106,197)"/>
<path d="M0 0 C0.99 0.495 0.99 0.495 2 1 C1.67257813 1.89847656 1.34515625 2.79695313 1.0078125 3.72265625 C-0.55801831 9.20306409 -0.21218206 14.78743162 -0.125 20.4375 C-0.11597656 21.55060547 -0.10695313 22.66371094 -0.09765625 23.81054688 C-0.0742224 26.54059023 -0.041414 29.2701801 0 32 C-2.38470696 31.0480364 -4.76838076 30.09594447 -7.140625 29.11328125 C-12.58883845 27.04497799 -17.38567127 25.96540566 -23 28 C-27.12969691 30.53941789 -31.07977654 33.38539684 -32.73828125 38.09765625 C-32.9964339 41.92569126 -31.92922077 44.52946234 -29.625 47.4375 C-25.93224474 51.04233252 -23.93101291 51.1859884 -18.875 51.5625 C-17.77929688 51.64628906 -16.68359375 51.73007813 -15.5546875 51.81640625 C-14.29011719 51.90728516 -14.29011719 51.90728516 -13 52 C-15.21588718 54.21588718 -16.35234418 54.54763399 -19.31640625 55.3671875 C-20.16267578 55.61339844 -21.00894531 55.85960937 -21.88085938 56.11328125 C-23.67019999 56.6215426 -25.46190885 57.12153847 -27.25585938 57.61328125 C-28.10083984 57.86207031 -28.94582031 58.11085937 -29.81640625 58.3671875 C-30.59443604 58.58487793 -31.37246582 58.80256836 -32.17407227 59.02685547 C-34.2113822 59.85102925 -34.2113822 59.85102925 -34.76147461 62.10205078 C-34.87954468 63.04153564 -34.87954468 63.04153564 -35 64 C-28.64452607 63.47090207 -23.07769734 62.33722457 -17.0625 60.25 C-15.89062134 59.85445923 -15.89062134 59.85445923 -14.69506836 59.45092773 C-9.49479522 57.6501894 -4.62543139 55.54059271 0.15234375 52.78515625 C2 52 2 52 5 53 C6.07495117 54.67407227 6.07495117 54.67407227 7.04296875 56.81640625 C7.56987305 57.96206055 7.56987305 57.96206055 8.10742188 59.13085938 C8.46384766 59.93330078 8.82027344 60.73574219 9.1875 61.5625 C9.55552734 62.36880859 9.92355469 63.17511719 10.30273438 64.00585938 C11.21124489 65.99986298 12.10980336 67.99776958 13 70 C11 71 11 71 9.15234375 70.40625 C8.42144531 70.1071875 7.69054687 69.808125 6.9375 69.5 C2.13582629 67.79843602 -2.07332897 67.61469927 -7 69 C-7.66 69.66 -8.32 70.32 -9 71 C-8.65476602 76.88010513 -8.65476602 76.88010513 -6 82 C-4.68 82 -3.36 82 -2 82 C-2.495 78.04 -2.495 78.04 -3 74 C4.87631017 74.49226939 10.67875791 75.92177563 16.5625 81.375 C18 84 18 84 17.875 87.1875 C17 90 17 90 15 92 C2.35376603 93.68470591 -11.57893546 90.17516987 -23 85 C-23.495 80.545 -23.495 80.545 -24 76 C-25.98 76.495 -25.98 76.495 -28 77 C-29.13070444 78.84727567 -29.13070444 78.84727567 -29.75 81.0625 C-29.99234375 81.79597656 -30.2346875 82.52945313 -30.484375 83.28515625 C-30.65453125 83.85105469 -30.8246875 84.41695313 -31 85 C-32.93210627 82.60418823 -34.84766849 80.20499368 -36.68359375 77.734375 C-37.28300781 76.93515625 -37.88242188 76.1359375 -38.5 75.3125 C-39.0671875 74.54550781 -39.634375 73.77851563 -40.21875 72.98828125 C-42.0785532 70.91231672 -43.39363385 69.94359636 -46 69 C-51.29912888 69.1926956 -54.24748605 70.24748605 -58 74 C-61.48027771 78.32034474 -61.43115734 81.65364903 -61 87 C-60.34 87.99 -59.68 88.98 -59 90 C-56 90.41666667 -56 90.41666667 -53 90 C-50.71271266 88.16116119 -50.71271266 88.16116119 -50.875 85.375 C-50.91625 84.59125 -50.9575 83.8075 -51 83 C-53.475 83.495 -53.475 83.495 -56 84 C-55.65657251 80.90915263 -54.74044345 79.67555431 -52.75 77.1875 C-50 75 -50 75 -47.5625 74.6875 C-43.43760928 76.80024891 -41.44208873 80.14974582 -39 84 C-38.47277344 84.79277344 -37.94554687 85.58554688 -37.40234375 86.40234375 C-35.40570875 89.77266362 -33.8610478 92.45167547 -34.21875 96.4375 C-34.98779899 99.04557919 -35.95738719 101.48891844 -37 104 C-37.74168441 106.2041607 -38.47080323 108.41258822 -39.1875 110.625 C-39.79015822 112.41717462 -40.39377748 114.2090279 -41 116 C-41.66 116 -42.32 116 -43 116 C-43.21914062 115.48050781 -43.43828125 114.96101563 -43.6640625 114.42578125 C-46.02378095 109.23631913 -48.28597419 106.24089275 -53 103 C-58.01860297 101.41893605 -63.33883764 100.94822884 -68.29296875 102.90625 C-71.73628506 104.86310736 -73.65170241 106.35913244 -75.5625 109.875 C-76.28678122 115.04843725 -75.64033409 118.67007535 -73.375 123.375 C-71.1439739 126.34184547 -71.1439739 126.34184547 -67.25 126.875 C-66.1775 126.91625 -65.105 126.9575 -64 127 C-63.67 125.35 -63.34 123.7 -63 122 C-63.969375 121.525625 -64.93875 121.05125 -65.9375 120.5625 C-69 119 -69 119 -70 118 C-70.37881436 114.59067078 -70.36000519 112.62182714 -68.625 109.625 C-64.53341062 107.09211134 -60.67780293 107.29147285 -56 108 C-50.98551436 110.3400933 -48.92648114 115.06000165 -46.80859375 119.96875 C-45.34830079 125.44308497 -46.48304343 130.96608685 -49 136 C-49.29549638 137.93389215 -49.56147492 139.87233419 -49.8125 141.8125 C-50.83396238 148.79899077 -52.74816235 155.3210058 -55 162 C-58.7343026 158.48336531 -60.97927322 154.12039617 -63.5078125 149.71289062 C-67.65339519 142.28797241 -67.65339519 142.28797241 -74 137 C-77.53018797 136.84651357 -80.61527952 136.95854754 -84 138 C-82.01855781 120.22587499 -76.38523903 102.45665529 -68.53808594 86.41088867 C-66.52785791 82.26855002 -64.91560461 78.10851361 -63.4375 73.75 C-57.54829622 56.8232885 -46.25195392 43.73510688 -34 31 C-33.22003662 30.18716553 -33.22003662 30.18716553 -32.42431641 29.35791016 C-26.14635153 22.85337211 -19.75082595 16.76802601 -12.65625 11.14453125 C-8.27777813 7.60955911 -4.14513287 3.80345163 0 0 Z " fill="#F8F8F8" transform="translate(195,108)"/>
<path d="M0 0 C2.64038866 3.18550116 4.86186614 6.36432659 6.9375 9.9375 C11.2932633 16.89919512 16.87617665 22.56000036 22.53613281 28.45507812 C24.37715305 30.39803611 26.13387699 32.40487676 27.875 34.4375 C30.50565857 37.48932312 33.2951469 40.3187335 36.17114258 43.13842773 C37.88082652 44.87869473 39.45907515 46.67030499 41.03515625 48.53125 C45.74108627 53.94437915 50.84551661 58.95385917 55.9375 64 C56.9175531 64.97502386 57.8973724 65.9502828 58.87695312 66.92578125 C61.24902313 69.28616618 63.6234086 71.64416905 66 74 C64 75 64 75 60.625 74.8125 C56.97118559 74.6511819 56.97118559 74.6511819 54.625 76.875 C51.66860796 80.74105113 51.9051661 83.03916213 52.48828125 87.734375 C53.21593364 90.95604207 54.58072955 92.79419459 57 95 C57.99 95 58.98 95 60 95 C60.20086443 91.28400809 60.1519437 90.22791555 58 87 C57.875 84.3125 57.875 84.3125 58 82 C59.32 81.34 60.64 80.68 62 80 C71.28056112 86.41482966 71.28056112 86.41482966 73 91 C73 94.0625 73 94.0625 72 97 C66.80040522 102.06276334 62.12722605 102.39469756 55.15234375 102.35546875 C46.6351029 101.85395668 38.17179128 99.33096722 30 97 C29.31671631 96.83387207 28.63343262 96.66774414 27.92944336 96.49658203 C21.14105682 94.51242805 16.94444381 89.49831879 12.1875 84.5 C11.34251953 83.63246094 10.49753906 82.76492188 9.62695312 81.87109375 C8.0647165 80.2654272 6.50769003 78.65466204 4.95776367 77.03710938 C3.32421105 75.33735092 1.67429803 73.65945789 0 72 C4.74146318 72.91770255 9.45862582 73.85276078 14.14453125 75.0234375 C30.14095189 79.31099486 30.14095189 79.31099486 45.85546875 76.59765625 C48.0995339 75.1760035 48.0995339 75.1760035 49 73 C49.87411326 66.98110582 48.99734347 62.75117302 45.48828125 57.7890625 C41.74253484 53.28630172 37.84647496 50.23675432 32 49 C25.54159985 48.28567949 25.54159985 48.28567949 19.6953125 50.51953125 C19.13585937 51.00808594 18.57640625 51.49664062 18 52 C18.46800711 56.05606165 18.87953208 59.46588679 21 63 C22.65 62.67 24.3 62.34 26 62 C25.34414811 58.39007621 25.34414811 58.39007621 24 55 C33.71428571 54.42857143 33.71428571 54.42857143 38 58 C42.19369925 62.19369925 43.64423657 65.07060954 44 71 C35.88898036 75.53621299 26.24836408 72.2250388 17.75 70.25 C16.61175781 69.99734375 15.47351563 69.7446875 14.30078125 69.484375 C-9.51835353 64.07707993 -9.51835353 64.07707993 -13.875 57.75 C-14.57625 56.78449219 -15.2775 55.81898438 -16 54.82421875 C-16.99 53.42623047 -16.99 53.42623047 -18 52 C-19.27103049 50.5030637 -20.56086292 49.02173971 -21.875 47.5625 C-28 40.71256039 -28 40.71256039 -28 38 C-26.75347656 38.2165625 -25.50695312 38.433125 -24.22265625 38.65625 C-6.18002628 42.5808177 -6.18002628 42.5808177 11.38671875 39.78125 C14.58351866 36.62170883 15.38050896 33.34882783 15.6875 28.9375 C15.38046454 23.77300613 13.74061394 21.47342723 10 18 C6.23380568 16.11690284 2.09138106 16.35881342 -2 17 C-4.9528552 18.52934615 -7.02376953 20.32876492 -9 23 C-10.27721629 27.09615009 -10.27721629 27.09615009 -9 31 C-7.68 31 -6.36 31 -5 31 C-4.7525 30.071875 -4.505 29.14375 -4.25 28.1875 C-2.91046761 24.77169242 -2.29184902 23.55448426 1 22 C4.14141856 22.12822117 6.21117432 22.5004104 8.875 24.1875 C10.58558918 26.94344924 10.45339217 28.82625484 10 32 C7.97539802 34.591678 6.75523775 35.83926082 3.50390625 36.53125 C-4.81044187 36.44291695 -12.62396418 35.12567159 -20.75170898 33.42382812 C-21.61739502 33.24271484 -22.48308105 33.06160156 -23.375 32.875 C-24.14585937 32.70742187 -24.91671875 32.53984375 -25.7109375 32.3671875 C-28.17532654 31.97187595 -30.50827595 31.93836725 -33 32 C-34.57820238 28.39371597 -36.14434383 24.78245516 -37.69970703 21.16625977 C-38.49014344 19.33533125 -39.28993815 17.50845205 -40.08984375 15.68164062 C-40.58613281 14.52470703 -41.08242187 13.36777344 -41.59375 12.17578125 C-42.05458984 11.11270752 -42.51542969 10.04963379 -42.99023438 8.9543457 C-43.97431076 6.07516089 -44.21424607 4.01161805 -44 1 C-43.443125 1.19335938 -42.88625 1.38671875 -42.3125 1.5859375 C-41.549375 1.84632813 -40.78625 2.10671875 -40 2.375 C-38.88625 2.75785156 -38.88625 2.75785156 -37.75 3.1484375 C-30.26549133 5.46608365 -23.64175449 6.41587101 -15.8125 6.5 C-14.84119141 6.54125 -13.86988281 6.5825 -12.86914062 6.625 C-7.70457118 6.79803936 -7.70457118 6.79803936 -3.21240234 4.62890625 C-1.64051912 2.83053677 -1.64051912 2.83053677 0 0 Z " fill="#F8F8F8" transform="translate(218,199)"/>
<path d="M0 0 C2.17231268 3.25846902 3.3333231 6.5312351 4.625 10.1875 C11.077579 27.76977581 19.9816488 42.84154316 32.77734375 56.5625 C35.17305667 59.18978447 37.39900229 61.91536072 39.625 64.6875 C44.98097264 71.2873207 50.74409098 76.92686468 57.30078125 82.32421875 C59.89415913 84.8818259 60.87491291 87.04568388 61.34765625 90.65234375 C61.67056641 91.81443359 61.67056641 91.81443359 62 93 C63.97228628 94.04332675 63.97228628 94.04332675 66.4375 94.5625 C77.48058617 98.51095389 84.02840888 111.65148113 89.91650391 121.24316406 C90.99542277 122.99257825 92.09445021 124.72775495 93.19921875 126.4609375 C103 142.00450555 103 142.00450555 103 147 C102.01 147.66 101.02 148.32 100 149 C100.56336583 152.64204106 101.84266975 153.92234614 104.5625 156.3125 C108.06569991 160.18331966 108.57081323 163.06804665 108.6875 168.25 C108.31132701 175.46116532 106.75169976 181.3667126 104 188 C103.38741495 189.55054202 102.7754874 191.10134389 102.1640625 192.65234375 C93.01135457 215.48284414 93.01135457 215.48284414 84 221 C81.66508361 220.67794257 79.33157492 220.34541851 77 220 C76.14921875 221.23943359 76.14921875 221.23943359 75.28125 222.50390625 C74.5284375 223.32761719 73.775625 224.15132812 73 225 C70.07946519 225.09611102 67.93976841 224.95138891 65.125 224.4375 C64.08279297 224.28571289 64.08279297 224.28571289 63.01953125 224.13085938 C58.84087197 223.48163265 54.99351982 222.41650489 51 221 C48.20526723 220.22975708 45.4192907 219.73175223 42.5625 219.25 C23.84860832 215.53494595 8.52903713 203.70119572 -2 188 C-12.14792782 171.47175942 -18.39477563 154.79335326 -23 136 C-23.30236572 134.82074951 -23.30236572 134.82074951 -23.61083984 133.61767578 C-25.34288017 126.15219707 -25.30466959 118.75911708 -25.25 111.125 C-25.24656586 110.4425824 -25.24313171 109.76016479 -25.23959351 109.05706787 C-25.1491595 93.69764833 -24.64565832 78.96307993 -19.89892578 64.2565918 C-17.4564027 56.64845021 -16.21352184 48.88295894 -15 41 C-12.9921875 42.2578125 -12.9921875 42.2578125 -11 44 C-11.10222502 47.1689757 -11.44500254 49.90089417 -12 53 C-12.31295351 55.16660121 -12.62543018 57.33327133 -12.9375 59.5 C-13.52754351 63.2868464 -14.18840105 67.01877166 -15.0625 70.75 C-17.22145189 80.10884213 -17.20541582 89.5035567 -17.1875 99.0625 C-17.18623108 99.7568515 -17.18496216 100.451203 -17.18365479 101.16659546 C-17.14853035 111.23671342 -17.00848323 121.08932307 -15 131 C-14.80631836 131.97275879 -14.61263672 132.94551758 -14.41308594 133.94775391 C-11.78183351 146.85314699 -9.00202708 159.20056039 -3 171 C-2.443125 172.15242188 -2.443125 172.15242188 -1.875 173.328125 C-1.23468459 174.63877061 -0.57847881 175.94184371 0.09765625 177.234375 C0.99679894 178.99373645 1.78041791 180.81056954 2.5625 182.625 C8.25114986 193.89075757 17.31598416 204.76658985 29.3046875 209.23046875 C32.51946519 210.24009848 35.74563521 211.12859014 39 212 C39.886875 212.35707031 40.77375 212.71414063 41.6875 213.08203125 C46.53945442 214.42661768 51.23797693 214.36854952 56.25 214.375 C57.23613281 214.39949219 58.22226563 214.42398438 59.23828125 214.44921875 C68.3450696 214.48521396 76.56103865 212.26315729 83.28515625 205.85546875 C92.91172233 195.43948039 99.10287217 182.54601543 99.625 168.1875 C98.25714719 143.44179916 79.6331457 120.2581041 62.5847168 103.69067383 C58.33334308 99.49181114 54.69742994 94.96422873 51.07910156 90.21826172 C47.60702362 85.69006216 43.88758763 81.49454018 39.98852539 77.33251953 C36.18164062 73.25230248 32.66579451 68.98734475 29.1796875 64.6328125 C27.0499526 62.06033701 24.80427794 59.66590386 22.5 57.25 C16.92916163 51.14256599 13.01237847 44.18046888 9 37 C8.53207031 36.18917969 8.06414062 35.37835938 7.58203125 34.54296875 C5.75947766 31.20710351 4.82044953 28.3702539 4.5 24.625 C4.40743819 21.00312256 4.40743819 21.00312256 2.1875 19.4375 C-0.31313723 18.77505648 -0.31313723 18.77505648 -4 20 C-5.32 24.62 -6.64 29.24 -8 34 C-8.66 34 -9.32 34 -10 34 C-11.16151777 29.92386622 -10.89774449 28.03516614 -8.9375 24.3125 C-5.12028511 16.50651001 -2.64357481 8.25776462 0 0 Z " fill="#F6F6F6" transform="translate(167,203)"/>
<path d="M0 0 C2.2890625 2.46484375 2.2890625 2.46484375 4.04296875 4.9609375 C5.59732589 7.26908526 5.59732589 7.26908526 8.44140625 7.8125 C9.57255859 7.91884766 9.57255859 7.91884766 10.7265625 8.02734375 C10.07071061 4.41741996 10.07071061 4.41741996 8.7265625 1.02734375 C11.99610452 1.59105789 13.55232133 2.52696641 15.7265625 5.02734375 C14.44920477 8.85941695 12.16174648 10.27535732 9.0390625 12.58984375 C8.45962891 13.02820557 7.88019531 13.46656738 7.28320312 13.91821289 C3.72416256 16.59370539 0.10969881 19.18293999 -3.53344727 21.7421875 C-10.62617724 26.72610664 -17.29083719 32.04059 -23.80664062 37.75732422 C-25.13299295 38.90574046 -26.49067188 40.0177299 -27.8515625 41.125 C-44.65969571 55.19503409 -57.46089368 76.01040901 -63.2734375 97.02734375 C-63.98081055 96.73456543 -64.68818359 96.44178711 -65.41699219 96.14013672 C-68.24439299 95.0386587 -71.07673835 94.11450346 -73.9765625 93.22265625 C-75.03875 92.88621094 -76.1009375 92.54976563 -77.1953125 92.203125 C-79.42605821 91.49881679 -81.66053148 90.80621445 -83.8984375 90.125 C-85.48398438 89.61646484 -85.48398438 89.61646484 -87.1015625 89.09765625 C-88.0699707 88.79617676 -89.03837891 88.49469727 -90.03613281 88.18408203 C-92.2734375 87.02734375 -92.2734375 87.02734375 -93.17871094 85.06591797 C-93.33977968 81.59961903 -91.45895532 79.50643859 -89.2734375 77.02734375 C-81.69182267 69.57336554 -76.13461593 64.81505829 -65.4609375 63.83984375 C-64.67267578 63.75798828 -63.88441406 63.67613281 -63.07226562 63.59179688 C-61.14041374 63.39275759 -59.20704337 63.20855268 -57.2734375 63.02734375 C-57.05966264 60.60578946 -57.05966264 60.60578946 -57.2734375 58.02734375 C-58.1190625 57.40859375 -58.9646875 56.78984375 -59.8359375 56.15234375 C-61.0425 55.10046875 -61.0425 55.10046875 -62.2734375 54.02734375 C-62.6546031 47.54752856 -59.20118512 42.86018104 -55.2734375 38.02734375 C-47.6256511 29.70475266 -40.20205171 27.96243665 -29.2734375 27.40234375 C-27.77345452 27.34719152 -26.27345551 27.29247241 -24.7734375 27.23828125 C-21.45138952 27.42639159 -21.45138952 27.42639159 -20.2734375 26.02734375 C-19.90747366 22.99956477 -19.87553963 21.55414836 -21.7421875 19.08276367 C-22.4125 18.48052979 -23.0828125 17.8782959 -23.7734375 17.2578125 C-24.85625 16.2668457 -24.85625 16.2668457 -25.9609375 15.25585938 C-27.105625 14.24555664 -27.105625 14.24555664 -28.2734375 13.21484375 C-29.0365625 12.52197266 -29.7996875 11.82910156 -30.5859375 11.11523438 C-32.47112931 9.4067793 -34.36681632 7.71180046 -36.2734375 6.02734375 C-34.57188242 2.24177396 -33.02458497 0.90291748 -29.2734375 -0.97265625 C-20.84419492 -3.49489645 -7.63056536 -4.59837172 0 0 Z " fill="#FAFAFA" transform="translate(173.2734375,91.97265625)"/>
<path d="M0 0 C4.66034575 1.46122158 7.81195216 4.15828378 11.3125 7.4375 C11.88427979 7.96375977 12.45605957 8.49001953 13.04516602 9.03222656 C17.53390786 13.28064729 20.90078029 17.72564372 24.12109375 23.015625 C25.91730993 25.34988748 25.91730993 25.34988748 29.22265625 25.296875 C30.13917969 25.19890625 31.05570313 25.1009375 32 25 C32.24234375 25.9178125 32.4846875 26.835625 32.734375 27.78125 C33.06953125 29.0084375 33.4046875 30.235625 33.75 31.5 C34.07484375 32.7065625 34.3996875 33.913125 34.734375 35.15625 C36.01356961 39.36470863 37.92966046 43.13142268 40 47 C40.37817871 47.71720215 40.75635742 48.4344043 41.14599609 49.17333984 C45.81200104 57.94250928 50.43011614 66.48699413 57 74 C57.58136719 74.68835938 58.16273438 75.37671875 58.76171875 76.0859375 C60.16056401 77.73585755 61.57804525 79.36995431 63 81 C61.35451172 81.58007812 61.35451172 81.58007812 59.67578125 82.171875 C58.22117153 82.69741142 56.7667545 83.2234814 55.3125 83.75 C54.59126953 84.00265625 53.87003906 84.2553125 53.12695312 84.515625 C48.87022174 86.07059537 45.01815776 87.48393841 42 91 C41.6015173 94.52326961 41.6015173 94.52326961 43 98 C45.61343689 100.73206754 45.61343689 100.73206754 48.9375 102.875 C49.48857422 103.26429688 50.03964844 103.65359375 50.60742188 104.0546875 C55.10732246 107.20407114 57.47685227 108.23502756 63 108 C63.33 107.67 63.66 107.34 64 107 C63.63774592 102.2906969 63.12418415 98.62808481 60 95 C57.36683885 93.70423493 54.81934617 92.878157 52 92 C54.34054554 89.65945446 56.21475064 89.00678935 59.3125 87.875 C60.25738281 87.52179688 61.20226562 87.16859375 62.17578125 86.8046875 C65.00252261 85.99928125 67.08424374 85.68200645 70 86 C71.57736937 87.17463677 73.15145435 88.35411932 74.703125 89.5625 C78.7502615 92.09540176 83.28362484 93.38686113 87.79296875 94.88671875 C90.3445762 95.77247773 92.63472057 96.71464964 95 98 C94.10796875 98.66386719 93.2159375 99.32773437 92.296875 100.01171875 C91.11433491 100.90331644 89.93205708 101.79526205 88.75 102.6875 C88.16347656 103.12255859 87.57695312 103.55761719 86.97265625 104.00585938 C82.73247394 107.22172798 78.81354854 110.37161241 77.1875 115.625 C76.83295718 118.14872255 76.83295718 118.14872255 78 121 C73.48458872 120.39050532 69.8308736 118.58430973 65.875 116.4375 C65.21628906 116.08252441 64.55757813 115.72754883 63.87890625 115.36181641 C57.8761814 112.05594682 52.38611137 108.23707428 47 104 C46.08734375 103.33484375 46.08734375 103.33484375 45.15625 102.65625 C35.03052149 94.82313926 26.99157852 82.19343609 21 71 C21 70.34 21 69.68 21 69 C23.86484788 70.12857644 26.65127441 71.30787517 29.4375 72.625 C32.95493709 73.9826073 35.27957095 74.27222652 39 74 C39.42653727 69.64931982 39.57772872 67.70611288 36.75 64.25 C35.38875 63.13625 35.38875 63.13625 34 62 C33.34 61.38125 32.68 60.7625 32 60.125 C29.99017959 58.75325223 29.99017959 58.75325223 27.3125 59.1875 C24.83108618 59.75815152 24.83108618 59.75815152 24 62 C21.37812506 60.95125002 20.20628639 60.35068687 18.75 57.875 C18.5025 57.25625 18.255 56.6375 18 56 C22.97011673 54.00881759 27.12333135 53.75154305 32.375 53.875 C33.47908203 53.88853516 33.47908203 53.88853516 34.60546875 53.90234375 C36.4037888 53.92569856 38.20193911 53.96156164 40 54 C39.67 52.35 39.34 50.7 39 49 C35.97892098 48.9456749 32.95883472 48.90617073 29.9375 48.875 C29.08994141 48.85824219 28.24238281 48.84148437 27.36914062 48.82421875 C22.16581799 48.78403865 17.92530179 49.30254185 13 51 C9.4267882 44.59456502 6.69888193 37.91561433 4.125 31.0625 C3.80265381 30.22162842 3.48030762 29.38075684 3.14819336 28.5144043 C2.85436768 27.71687744 2.56054199 26.91935059 2.2578125 26.09765625 C1.85780029 25.02269897 1.85780029 25.02269897 1.44970703 23.92602539 C1 22 1 22 2 19 C2.40089844 19.42152344 2.80179687 19.84304688 3.21484375 20.27734375 C7.90956687 24.80173678 11.52060152 25.97061497 18 26 C18.42670076 22.51527717 18.64789556 19.9813155 16.6640625 16.9765625 C15.16390788 15.25103253 13.63343216 13.59940232 12 12 C8.72226496 12.75150023 8.72226496 12.75150023 7 16 C3.07805532 10.71077185 0.28398017 6.67353409 0 0 Z " fill="#F7F7F7" transform="translate(111,330)"/>
<path d="M0 0 C3.66639248 -0.11728126 7.3322952 -0.18760891 11 -0.25 C12.02996094 -0.28351563 13.05992187 -0.31703125 14.12109375 -0.3515625 C21.90542399 -0.45072594 26.8500402 0.95721231 33.09375 5.53515625 C36.3516284 9.07357418 37.44642613 11.78397605 37.6875 16.625 C37.46942804 20.60481331 37.19528679 21.74665498 34.6875 25 C33.800625 25.66 32.91375 26.32 32 27 C29.31760958 29.21767904 29.31760958 29.21767904 28.75 32.625 C28.74323161 34.95296435 28.74323161 34.95296435 30 36 C31.57731487 36.05062708 33.15684444 36.03557677 34.734375 35.9921875 C35.70117188 35.97542969 36.66796875 35.95867187 37.6640625 35.94140625 C39.70592068 35.89746753 41.7476235 35.84550727 43.7890625 35.78515625 C52.99449526 35.65085949 52.99449526 35.65085949 57 39 C59.28096748 41.28096748 58.48184428 46.69228823 58.54321289 49.8449707 C58.47958859 53.37750232 58.37010114 55.43444203 56.40234375 58.44140625 C54.4375 60.1875 54.4375 60.1875 52.43359375 61.54296875 C51.96050781 62.02378906 51.48742187 62.50460937 51 63 C51.19625964 65.65010503 51.19625964 65.65010503 52 68 C52.54414551 68.16081055 53.08829102 68.32162109 53.64892578 68.48730469 C56.14417894 69.2311586 58.63448795 69.99043034 61.125 70.75 C62.40890625 71.12898438 62.40890625 71.12898438 63.71875 71.515625 C70.11679308 73.48425364 74.90939747 75.51387807 79.3125 80.75 C81.94093135 85.81216408 82.65296787 89.73637804 81.0625 95.25 C76.85336641 100.86217812 70.54318336 102.19825386 64 104 C63.71769531 103.195625 63.43539062 102.39125 63.14453125 101.5625 C56.98728882 85.09503637 48.65894275 69.15891167 37.88842773 55.24047852 C34.16091314 50.38713579 31.20244728 45.28586025 28.2746582 39.92138672 C20.82033774 26.28710266 11.95907369 14.19367871 1.46875 2.71484375 C0 1 0 1 0 0 Z " fill="#FAFAFA" transform="translate(283,225)"/>
<path d="M0 0 C10.17817984 2.00226489 18.52214536 11.04555986 24.5546875 19.06640625 C27.8125 24.06355932 27.8125 24.06355932 27.8125 27.75 C28.740625 28.03875 29.66875 28.3275 30.625 28.625 C33.8125 29.75 33.8125 29.75 36.8125 31.75 C36.4825 33.4 36.1525 35.05 35.8125 36.75 C31.53876765 36.22246116 27.91625409 35.10091082 23.95117188 33.52612305 C15.02195995 30.02477111 5.61544387 26.93714419 -3.73828125 30.8046875 C-11.03866908 35.67161272 -15.24826237 44.12478324 -19.1875 51.75 C-20.05181641 53.39162109 -20.05181641 53.39162109 -20.93359375 55.06640625 C-22.57451331 59.88692694 -22.516715 64.14026563 -22.375 69.1875 C-22.36146484 70.10982422 -22.34792969 71.03214844 -22.33398438 71.98242188 C-22.29890953 74.23890383 -22.24976387 76.49413226 -22.1875 78.75 C-24.6625 79.245 -24.6625 79.245 -27.1875 79.75 C-31.61616837 73.41161485 -30.89841206 66.65758649 -29.82421875 59.2421875 C-26.54517398 46.08139555 -17.61399174 31.88873609 -6.4375 24.25 C-0.96891764 21.1832722 3.68599389 21.10366726 9.8125 21.75 C11.03646484 21.87181641 11.03646484 21.87181641 12.28515625 21.99609375 C14.13256379 22.20787768 15.97382097 22.47246354 17.8125 22.75 C12.56737823 16.46860797 7.34539184 10.26206722 -0.1875 6.75 C-0.13529297 7.88888672 -0.13529297 7.88888672 -0.08203125 9.05078125 C-0.05496094 10.04464844 -0.02789062 11.03851563 0 12.0625 C0.05220703 13.54169922 0.05220703 13.54169922 0.10546875 15.05078125 C-0.1875 17.75 -0.1875 17.75 -1.5078125 19.609375 C-3.77121927 21.14638611 -5.45229353 20.83813985 -8.0703125 20.34375 C-12.24461817 19.17309601 -16.21383819 17.46898851 -20.1875 15.75 C-22.25304274 21.1720497 -22.65766104 25.3051626 -21.5625 31 C-21.43875 31.9075 -21.315 32.815 -21.1875 33.75 C-23.1875 35.75 -23.1875 35.75 -25.9375 36 C-29.32130588 35.73970724 -32.00044525 34.87170083 -35.1875 33.75 C-34.90388858 36.45939422 -34.6108895 39.16722661 -34.3125 41.875 C-34.19455078 43.01582031 -34.19455078 43.01582031 -34.07421875 44.1796875 C-33.57544839 48.63025383 -32.66921116 52.502428 -31.1875 56.75 C-31.11227031 59.08212027 -31.09424124 61.4185311 -31.1875 63.75 C-33.0625 64.8125 -33.0625 64.8125 -35.1875 65.75 C-37.1875 64.75 -37.1875 64.75 -38.22265625 61.87109375 C-41.77581977 49.13104356 -41.77581977 49.13104356 -42.1875 42.75 C-42.26226562 41.75742187 -42.33703125 40.76484375 -42.4140625 39.7421875 C-42.79005252 31.52977385 -42.79005252 31.52977385 -40.0625 28 C-36.81449124 26.58782228 -34.69315513 26.36048276 -31.1875 26.75 C-30.5275 27.08 -29.8675 27.41 -29.1875 27.75 C-29.290625 26.615625 -29.39375 25.48125 -29.5 24.3125 C-29.51886966 19.01955969 -27.28054327 14.94956861 -24.1875 10.75 C-21.1875 8.75 -21.1875 8.75 -17.9375 8.9375 C-13.97799689 9.79539234 -10.84060513 11.03527718 -7.1875 12.75 C-7.27 11.88375 -7.3525 11.0175 -7.4375 10.125 C-7.04031493 4.7630015 -5.44281787 1.28066303 0 0 Z " fill="#0B0B0B" transform="translate(213.1875,313.25)"/>
<path d="M0 0 C7.52628854 6.88117809 10.76197579 14.10174659 13 24 C12.43410156 23.84402344 11.86820312 23.68804687 11.28515625 23.52734375 C3.15568701 21.65131239 -2.48088665 23.21069225 -9.65234375 27.296875 C-12.05276037 29.03827541 -13.51813078 30.43729547 -15 33 C-15 34.32 -15 35.64 -15 37 C-12.62694422 37.41780879 -12.62694422 37.41780879 -10 37 C-9.566875 36.2575 -9.13375 35.515 -8.6875 34.75 C-6.34391261 30.93082054 -3.23717663 29.3282918 1 28 C7.36879647 27.30755367 10.58400647 29.81718045 15.49609375 33.56640625 C19.20043333 37.16672381 20.88946468 40.9981489 22 46 C22 46.99 22 47.98 22 49 C7.28569778 49.85346114 -5.11825885 47.94348287 -19 43 C-19.89549561 42.6898999 -20.79099121 42.3797998 -21.71362305 42.06030273 C-29.90867919 39.04602063 -29.90867919 39.04602063 -32.5625 34.5625 C-33.37460937 33.26119141 -33.37460937 33.26119141 -34.203125 31.93359375 C-34.79609375 30.96550781 -35.3890625 29.99742187 -36 29 C-37.57767706 26.68963673 -39.19707571 24.40907621 -40.8125 22.125 C-43.11876945 18.83032936 -45.32735849 15.66388141 -47 12 C-45.27073126 12.31193464 -43.54158956 12.62457362 -41.8125 12.9375 C-40.36810547 13.19853516 -40.36810547 13.19853516 -38.89453125 13.46484375 C-37.1623371 13.78510097 -35.43484349 14.13668451 -33.72265625 14.55078125 C-29.69200763 15.21580936 -25.7036729 15.22474506 -21.625 15.25 C-20.8 15.270625 -19.975 15.29125 -19.125 15.3125 C-13.65194271 15.34724957 -9.79297937 14.72216649 -5 12 C-3.40351558 10.18536861 -3.40351558 10.18536861 -2.625 8.0625 C-2.32851563 7.39347656 -2.03203125 6.72445313 -1.7265625 6.03515625 C-1.01448689 4.04057888 -0.47091861 2.06373155 0 0 Z " fill="#F9F9F9" transform="translate(297,291)"/>
<path d="M0 0 C3.14737226 2.85832787 5.07562312 5.3604773 5.7265625 9.61328125 C5.7471875 10.62390625 5.7678125 11.63453125 5.7890625 12.67578125 C3.8090625 13.99578125 1.8290625 15.31578125 -0.2109375 16.67578125 C-0.44167969 16.13308594 -0.67242187 15.59039062 -0.91015625 15.03125 C-2.47339177 11.60201792 -3.71019443 9.11063708 -6.5859375 6.61328125 C-10.1412002 5.34354457 -11.65913383 5.29855125 -15.2109375 6.67578125 C-18.48203624 9.61902499 -20.87687673 12.7000504 -21.62109375 17.1015625 C-21.66134706 20.61510172 -21.32691549 23.32784729 -20.2109375 26.67578125 C-15.26005748 30.16300825 -9.8044859 32.55010349 -3.6953125 32.16015625 C6.47257822 30.1777373 14.84313538 25.62170837 22.1015625 18.36328125 C24.41057214 14.6859696 25.59431774 10.83023462 26.7890625 6.67578125 C27.24345703 7.61550781 27.24345703 7.61550781 27.70703125 8.57421875 C29.88721561 12.80865624 32.43032988 14.01192573 36.7890625 15.67578125 C36.8432005 17.92551572 36.88191741 20.17562508 36.9140625 22.42578125 C36.93726563 23.67875 36.96046875 24.93171875 36.984375 26.22265625 C36.70307798 31.19598761 36.70307798 31.19598761 34.7890625 33.67578125 C32.96484375 34.609375 32.96484375 34.609375 30.7890625 34.67578125 C28.45703125 33.4609375 28.45703125 33.4609375 25.9765625 31.73828125 C21.52916388 28.88535739 19.00058873 27.99601696 13.7890625 28.67578125 C13.61979487 33.07673961 13.78586098 35.80292498 15.7890625 39.67578125 C15.2454924 44.05107504 12.89951899 45.70800078 9.61328125 48.34765625 C4.77747138 51.86837435 0.61286147 52.15314182 -5.2109375 51.67578125 C-7.63573486 48.0385852 -7.59756327 45.81874643 -7.8359375 41.48828125 C-7.91070312 40.21597656 -7.98546875 38.94367188 -8.0625 37.6328125 C-8.11148438 36.65699219 -8.16046875 35.68117187 -8.2109375 34.67578125 C-10.65603095 34.97493396 -10.65603095 34.97493396 -13.2109375 35.67578125 C-14.0771875 36.97515625 -14.0771875 36.97515625 -14.9609375 38.30078125 C-17.2109375 40.67578125 -17.2109375 40.67578125 -19.35546875 40.8515625 C-23.4040719 40.45258868 -25.76714216 39.97164481 -29.2109375 37.67578125 C-30.32697223 34.32767706 -30.38907997 31.57478724 -30.5234375 28.05078125 C-30.92488444 22.09083819 -31.52746208 16.57092621 -35.2109375 11.67578125 C-37.819708 10.46443595 -37.819708 10.46443595 -40.2109375 10.67578125 C-31.87893117 2.91839605 -10.97470914 -6.57319151 0 0 Z " fill="#F7F7F7" transform="translate(275.2109375,83.32421875)"/>
<path d="M0 0 C5.03747123 2.87987785 9.48778364 6.38783193 14.0625 9.94140625 C19.11952234 13.48535674 22.64926906 14.24950972 28.8125 14.125 C29.97394531 14.10695313 31.13539063 14.08890625 32.33203125 14.0703125 C33.21246094 14.04710937 34.09289062 14.02390625 35 14 C33.19909689 20.19060443 30.76244739 25.97069394 28.0625 31.8125 C27.72669922 32.55363037 27.39089844 33.29476074 27.04492188 34.05834961 C25.16923948 38.04961671 23.42039295 41.08463151 20 44 C18.02 41.36 16.04 38.72 14 36 C9.0981137 36.26470758 9.0981137 36.26470758 5.0625 38.75 C3.83282092 41.35402628 3.76276019 43.15312226 4 46 C5.65 46.33 7.3 46.66 9 47 C9.33 45.35 9.66 43.7 10 42 C11.485 42.495 11.485 42.495 13 43 C13.33 44.98 13.66 46.96 14 49 C11.67157572 51.2388695 10.52937945 52 7.25 52 C1.83350468 50.33338605 -2.55236205 48.62030556 -5.3984375 43.46875 C-9.15087784 33.78159904 -8.18156751 27.66446122 -4.2890625 18.18359375 C-2.39806454 13.51340183 -0.8327335 9.16006845 -0.375 4.125 C-0.30023438 3.34382813 -0.22546875 2.56265625 -0.1484375 1.7578125 C-0.09945313 1.17773438 -0.05046875 0.59765625 0 0 Z " fill="#FAFAFA" transform="translate(282,370)"/>
<path d="M0 0 C8.01459026 1.05853079 13.71163177 7.55811102 19.25 13 C19.8179126 13.55389404 20.3858252 14.10778809 20.97094727 14.6784668 C24.05221388 17.79597814 25.80088233 20.26146533 27.3125 24.4375 C29.75313441 25.10897918 29.75313441 25.10897918 32.3125 25.4375 C34.1875 26.75 34.1875 26.75 35.3125 28.4375 C35 30.625 35 30.625 34.3125 32.4375 C28.57773232 31.91615748 23.65278339 30.22814676 18.27734375 28.1796875 C14.7032884 27.28499644 12.82507173 27.29081529 9.3125 28.4375 C6.93346424 30.18542372 4.95579631 32.22795344 2.9375 34.375 C2.37240723 34.95894531 1.80731445 35.54289062 1.22509766 36.14453125 C-6.57629927 44.3091466 -13.84947073 52.30369286 -16.6875 63.4375 C-18.3375 63.1075 -19.9875 62.7775 -21.6875 62.4375 C-22.43446959 53.4738649 -18.32767968 47.90398754 -12.75 41.25 C-10.7604192 38.95021392 -8.73080306 36.68958487 -6.6875 34.4375 C-6.14818848 33.83550781 -5.60887695 33.23351562 -5.05322266 32.61328125 C6.4687827 19.88718054 6.4687827 19.88718054 15.3125 19.4375 C13.87814079 17.9760774 12.43989414 16.51846951 11 15.0625 C10.19949219 14.25039063 9.39898437 13.43828125 8.57421875 12.6015625 C5.40405726 9.47785961 5.40405726 9.47785961 1.26953125 8.2421875 C0.56183594 8.26539063 -0.14585937 8.28859375 -0.875 8.3125 C-2.133125 8.35375 -3.39125 8.395 -4.6875 8.4375 C-4.73648438 9.29214844 -4.78546875 10.14679688 -4.8359375 11.02734375 C-4.91070312 12.13207031 -4.98546875 13.23679687 -5.0625 14.375 C-5.13210937 15.47714844 -5.20171875 16.57929688 -5.2734375 17.71484375 C-5.41007812 18.61332031 -5.54671875 19.51179688 -5.6875 20.4375 C-8.47665389 21.83207694 -10.59023264 21.6196922 -13.6875 21.4375 C-15.36836226 20.80748072 -17.03816409 20.14595838 -18.6875 19.4375 C-18.54649143 21.70863803 -18.39953245 23.97940725 -18.25 26.25 C-18.16878906 27.51457031 -18.08757812 28.77914063 -18.00390625 30.08203125 C-17.81565453 33.42931893 -17.81565453 33.42931893 -16.6875 36.4375 C-16.64795766 38.77049825 -16.64348268 41.10458189 -16.6875 43.4375 C-19.0625 44.0625 -19.0625 44.0625 -21.6875 44.4375 C-26.22090613 39.90409387 -25.82597652 30.72055775 -26.0625 24.5625 C-25.95968825 19.81945109 -25.09395734 16.93602376 -21.6875 13.4375 C-18.49867907 12.12926577 -17.14687349 12.2843755 -13.875 13.375 C-13.153125 13.725625 -12.43125 14.07625 -11.6875 14.4375 C-11.790625 13.220625 -11.89375 12.00375 -12 10.75 C-12.0063875 7.14745073 -11.76973541 6.5448629 -9.4375 3.5 C-5.99646586 0.9192244 -4.11391765 0.66970752 0 0 Z " fill="#090909" transform="translate(185.6875,278.5625)"/>
<path d="M0 0 C5.6049224 0.77067683 10.72858239 2.42387579 16.078125 4.18359375 C23.61341176 6.61386753 30.48705643 7.1356407 38.375 7.0625 C39.76525391 7.05573242 39.76525391 7.05573242 41.18359375 7.04882812 C43.45579709 7.03711574 45.72786388 7.02071372 48 7 C50.8993278 14.73154079 51.41615813 23.3136442 48 31 C47.443125 30.236875 46.88625 29.47375 46.3125 28.6875 C43.23899285 25.11558629 40.72684183 23.22875048 35.9921875 22.6015625 C34.96351563 22.60929687 33.93484375 22.61703125 32.875 22.625 C31.84117187 22.61726563 30.80734375 22.60953125 29.7421875 22.6015625 C27.00799728 22.78652672 27.00799728 22.78652672 25.17578125 24.29296875 C23.32419083 26.98115817 23.30080115 29.81150779 23 33 C10.1960919 25.66032754 4.97807914 17.75625839 1 4 C0.65188427 2.67044958 0.30903983 1.33917261 0 0 Z " fill="#F9F9F9" transform="translate(273,339)"/>
<path d="M0 0 C7.16736142 3.45132886 13.24275718 8.57268513 19 14 C16.32135091 20.30873092 10.63320598 25.79389114 4.83203125 29.31640625 C-1.7837879 31.88577692 -9.02520648 31.26787969 -16 31 C-16.22786458 29.01432292 -16.45572917 27.02864583 -16.68359375 25.04296875 C-16.97170735 22.80603607 -16.97170735 22.80603607 -18 20 C-18.84684572 13.86641746 -17.95981523 9.70646458 -14.34375 4.6640625 C-10.29565588 -0.34898429 -6.29672152 -1.33421386 0 0 Z " fill="#FBFBFB" transform="translate(234,381)"/>
<path d="M0 0 C6.80444144 0.89238576 11.56196519 5.81806209 15.875 10.9375 C16.514375 11.783125 17.15375 12.62875 17.8125 13.5 C16.84376953 13.81517578 16.84376953 13.81517578 15.85546875 14.13671875 C1.66068921 19.36024227 -10.42777307 29.19786884 -22.1875 38.5 C-22.73978271 38.05986572 -23.29206543 37.61973145 -23.86108398 37.16625977 C-29.0581801 33.06150964 -33.17547508 30.80630762 -39.875 30.125 C-43.1875 29.5 -43.1875 29.5 -45.125 27.75 C-46.35467908 25.14597372 -46.42473981 23.34687774 -46.1875 20.5 C-38.98767193 20.16973266 -33.11236851 21.68603423 -26.25390625 23.72265625 C-17.67334324 26.20492795 -17.67334324 26.20492795 -9.1875 24.5 C-8.83967622 20.78524208 -8.83967622 20.78524208 -10.6875 17.6875 C-12.53440688 14.99409414 -12.73033619 12.77086816 -12.609375 9.53515625 C-11.83793255 5.81366073 -9.94642085 4.07081261 -7.1875 1.5 C-4.81832152 0.39438338 -2.60969266 0.40936355 0 0 Z " fill="#F9F9F9" transform="translate(217.1875,55.5)"/>
<path d="M0 0 C3.32388856 1.37906015 4.79712016 2.72868981 6.625 5.8125 C7.04910156 6.52535156 7.47320312 7.23820312 7.91015625 7.97265625 C9 10 9 10 10.0625 12.75 C10.87138362 15.09348768 10.87138362 15.09348768 12.75 16.75 C16.78226461 20.78226461 20.6722033 24.93252988 21.29882812 30.79638672 C21.1448963 33.75957431 20.81386862 36.62829432 20.375 39.5625 C20.19130859 41.07553711 20.19130859 41.07553711 20.00390625 42.61914062 C19.70003775 45.08515041 19.36510105 47.54244151 19 50 C18.401875 49.25105469 17.80375 48.50210938 17.1875 47.73046875 C14.61030148 44.50797417 14.61030148 44.50797417 12 41.3125 C11.525625 40.73113281 11.05125 40.14976562 10.5625 39.55078125 C7.7314162 36.74093058 5.67267523 36 1.6875 36 C-2.95488194 37.25895103 -5.82563212 39.42360136 -9 43 C-10.18683501 45.1061262 -10.18683501 45.1061262 -11 47 C-11.66 47 -12.32 47 -13 47 C-13.02918874 43.29168337 -13.04686218 39.58339658 -13.0625 35.875 C-13.07087891 34.82828125 -13.07925781 33.7815625 -13.08789062 32.703125 C-13.10375207 27.6909095 -13.08177213 22.92334088 -12 18 C-8.88599816 20.99423254 -6.11550878 24.18667721 -3.3671875 27.51171875 C-2.04914224 29.12382018 -2.04914224 29.12382018 0 30 C3.04173894 30.16670273 3.04173894 30.16670273 6 30 C7.27081843 28.91661824 7.27081843 28.91661824 7.5 26.375 C6.84886151 21.97981522 5.08478074 20.24168703 1.890625 17.28125 C-0.02481779 15.71718488 -0.02481779 15.71718488 -2.9375 16.0625 C-3.9584375 16.5265625 -3.9584375 16.5265625 -5 17 C-6.820991 14.32207206 -6.9974456 12.8595082 -6.9375 9.5625 C-5.83343994 5.36707178 -4.26274431 3.77333266 -1 1 C-0.67 0.67 -0.34 0.34 0 0 Z " fill="#F6F6F6" transform="translate(117,250)"/>
<path d="M0 0 C2.6875 2.25 2.6875 2.25 5 5 C5.62261719 5.64582031 6.24523437 6.29164063 6.88671875 6.95703125 C7.54285156 7.65183594 8.19898438 8.34664063 8.875 9.0625 C9.49117187 9.71347656 10.10734375 10.36445313 10.7421875 11.03515625 C12 13 12 13 11.6953125 15.24609375 C11.46585937 15.82488281 11.23640625 16.40367187 11 17 C7.0599475 16.47692407 5.09421867 15.56555781 2.25 12.8125 C-8.58950482 2.96392006 -18.5407595 -0.2268522 -33.1875 -0.49609375 C-36.05769506 -0.18208992 -36.05769506 -0.18208992 -38.3125 1.52734375 C-43.41529785 9.00436004 -41.01581798 21.65218862 -40.87304688 30.26171875 C-40.86208984 31.48246094 -40.85113281 32.70320313 -40.83984375 33.9609375 C-40.82300537 35.07259277 -40.80616699 36.18424805 -40.78881836 37.32958984 C-41 40 -41 40 -43 42 C-45.125 41.625 -45.125 41.625 -47 41 C-50.07019934 31.68532741 -50.16950023 23.68428257 -49 14 C-48.87367188 12.88625 -48.74734375 11.7725 -48.6171875 10.625 C-47.78583881 4.57882769 -46.72734587 -0.10120257 -43 -5 C-30.83539228 -11.41720869 -11.44196621 -5.99033259 0 0 Z " fill="#080808" transform="translate(246,365)"/>
<path d="M0 0 C2.53986929 1.26993465 2.66204993 2.24054785 3.75 4.8125 C6.17750858 9.79200478 9.18437333 11.93549957 14.38671875 13.90234375 C16.57988279 14.64946557 18.77696608 15.34791005 21 16 C10.87833349 28.09662583 2.78212518 34.71539527 -13 38 C-12.51402344 37.23945313 -12.02804687 36.47890625 -11.52734375 35.6953125 C-9.69579563 32.46316876 -9.44314659 30.65932241 -10 27 C-13.06006607 23.42992292 -17.58953695 22.95560033 -22 22 C-19.64225295 19.450254 -17.08358291 17.65402993 -14.1875 15.75 C-7.96402807 11.44981677 -3.62727926 6.65001197 0 0 Z " fill="#FAFAFA" transform="translate(269,412)"/>
<path d="M0 0 C1.57736937 1.17463677 3.15145435 2.35411932 4.703125 3.5625 C8.7502615 6.09540176 13.28362484 7.38686113 17.79296875 8.88671875 C20.3445762 9.77247773 22.63472057 10.71464964 25 12 C24.10796875 12.66386719 23.2159375 13.32773437 22.296875 14.01171875 C21.11433491 14.90331644 19.93205708 15.79526205 18.75 16.6875 C18.16347656 17.12255859 17.57695312 17.55761719 16.97265625 18.00585938 C12.73247394 21.22172798 8.81354854 24.37161241 7.1875 29.625 C6.83295718 32.14872255 6.83295718 32.14872255 8 35 C3.34842205 34.39171673 -0.42424668 32.44525724 -4.5 30.25 C-5.47646484 29.74726563 -5.47646484 29.74726563 -6.47265625 29.234375 C-10.70162937 26.97892267 -13.77454513 24.54800036 -17 21 C-16.28972656 21.08378906 -15.57945312 21.16757812 -14.84765625 21.25390625 C-13.92855469 21.35574219 -13.00945312 21.45757812 -12.0625 21.5625 C-11.14597656 21.66691406 -10.22945312 21.77132813 -9.28515625 21.87890625 C-8.53105469 21.91886719 -7.77695313 21.95882813 -7 22 C-6.67 21.67 -6.34 21.34 -6 21 C-6.36225408 16.2906969 -6.87581585 12.62808481 -10 9 C-12.63316115 7.70423493 -15.18065383 6.878157 -18 6 C-15.65945446 3.65945446 -13.78524936 3.00678935 -10.6875 1.875 C-9.74261719 1.52179688 -8.79773438 1.16859375 -7.82421875 0.8046875 C-4.99747739 -0.00071875 -2.91575626 -0.31799355 0 0 Z " fill="#F9F9F9" transform="translate(181,416)"/>
<path d="M0 0 C5.19633442 1.86283687 7.36644072 5.67570293 10.3125 10.1875 C11.06466797 11.28771484 11.06466797 11.28771484 11.83203125 12.41015625 C15.42436648 18.44569354 15.80445623 23.94049847 16.00146484 30.78466797 C16.17499979 36.32917108 17.10173407 41.29534848 18.61328125 46.6484375 C19.48744595 49.8227786 19.94128313 52.92079154 20.3125 56.1875 C17.88371695 53.83706479 15.56282821 51.47996763 13.36328125 48.91015625 C3.98954729 37.87858682 3.98954729 37.87858682 -8.875 32.1875 C-9.803125 32.1875 -10.73125 32.1875 -11.6875 32.1875 C-11.6875 28.2275 -11.6875 24.2675 -11.6875 20.1875 C-10.82125 20.80625 -9.955 21.425 -9.0625 22.0625 C-4.93867323 24.65898352 -1.74368941 26.45569862 3.1875 25.8125 C3.88875 25.60625 4.59 25.4 5.3125 25.1875 C5.19072312 23.27283633 5.19072312 23.27283633 4.3125 21.1875 C3.49523437 20.79304688 2.67796875 20.39859375 1.8359375 19.9921875 C-0.6875 18.1875 -0.6875 18.1875 -1.54296875 14.90234375 C-1.65253906 13.65582031 -1.76210937 12.40929687 -1.875 11.125 C-2.06364255 6.10594644 -2.06364255 6.10594644 -4.6875 2.1875 C-2.6875 0.1875 -2.6875 0.1875 0 0 Z " fill="#F8F8F8" transform="translate(119.6875,291.8125)"/>
<path d="M0 0 C2.08061519 0.38979895 4.16390204 0.76569778 6.25 1.125 C7.83350085 1.41575581 9.41690095 1.70706435 11 2 C10.9175 3.216875 10.835 4.43375 10.75 5.6875 C10.78173051 8.68603335 10.99743829 9.99487658 12.375 12.75 C16.13805414 15.97547497 20.34854884 17.41105008 25 19 C19.63086787 22.57942142 14.32573181 23.25178428 7.97265625 23.1953125 C6.04389648 23.18564453 6.04389648 23.18564453 4.07617188 23.17578125 C2.73827846 23.15907601 1.40038783 23.14214619 0.0625 23.125 C-1.30272783 23.11495322 -2.6679628 23.10583036 -4.03320312 23.09765625 C-7.35565199 23.07417605 -10.67773321 23.04133359 -14 23 C-13.66742188 22.41089844 -13.33484375 21.82179688 -12.9921875 21.21484375 C-11.48261211 17.84504357 -12.13289489 15.5303565 -13 12 C-15.25774097 8.57446198 -17.71793034 6.39446592 -21 4 C-13.74604881 -2.48459273 -9.12655702 -2.33362597 0 0 Z " fill="#FBFBFB" transform="translate(226,432)"/>
<path d="M0 0 C8.45510225 0.33001072 16.77709124 0.94821961 25.125 2.375 C25.82230225 2.48884033 26.51960449 2.60268066 27.23803711 2.7199707 C31.58754609 3.50806619 35.19479228 4.74463372 39 7 C40.46650366 9.93300732 40.36440295 11.72037344 40 15 C37.45564223 20.60416733 33.88541713 24.36434074 29 28 C24.9112718 26.37782825 22.17121318 23.44306613 19.140625 20.37109375 C18.316763 19.54654442 18.316763 19.54654442 17.47625732 18.70533752 C16.32082415 17.54689145 15.16781416 16.38602406 14.01708984 15.22290039 C12.24761619 13.43509149 10.47019144 11.65549296 8.69140625 9.87695312 C7.56983792 8.75047231 6.44872781 7.62353505 5.328125 6.49609375 C4.79382874 5.96068466 4.25953247 5.42527557 3.70904541 4.87364197 C0 1.11606749 0 1.11606749 0 0 Z " fill="#FBFBFB" transform="translate(247,189)"/>
<path d="M0 0 C3.71216454 2.76254105 5.97629787 5.68865957 7.6875 10 C8.0612918 13.05657599 8.00610139 15.94142661 7.6875 19 C1.95519829 21.85288164 -2.91109065 23.53444296 -9.3125 24 C-10.20001953 22.71416016 -10.20001953 22.71416016 -11.10546875 21.40234375 C-11.90362832 20.24738373 -12.70180661 19.09243665 -13.5 17.9375 C-13.90984131 17.34348389 -14.31968262 16.74946777 -14.74194336 16.13745117 C-16.91261986 12.99754636 -19.11179772 9.88679212 -21.375 6.8125 C-23.3125 4 -23.3125 4 -23.3125 2 C-15.42606518 -0.81898096 -8.19037895 -2.47256723 0 0 Z " fill="#F8F8F8" transform="translate(250.3125,159)"/>
<path d="M0 0 C0.38865234 0.86431641 0.38865234 0.86431641 0.78515625 1.74609375 C2.09599382 4.17809787 3.59597834 6.00712421 5.4375 8.0625 C6.03433594 8.73410156 6.63117188 9.40570313 7.24609375 10.09765625 C8.93937491 11.99142106 8.93937491 11.99142106 10.69921875 13.5390625 C12 15 12 15 12.375 18.3125 C11.96997909 22.29520557 11.17777571 24.65555873 9 28 C5.39651064 30.55535904 1.49724541 30.30495512 -2.75 30.25 C-3.81927734 30.24419922 -3.81927734 30.24419922 -4.91015625 30.23828125 C-9.92687609 30.15573924 -14.25680569 29.58106477 -19 28 C-17.46500431 24.50182561 -15.36351841 21.94553963 -12.875 19.0625 C-7.88530051 13.07809543 -3.92460734 6.72637061 0 0 Z " fill="#F8F8F8" transform="translate(339,407)"/>
<path d="M0 0 C2.27600141 2.27600141 3.1452166 4.26920203 4.5 7.1875 C7.02744302 12.33553505 9.87631046 17.10816174 13.0625 21.875 C13.47371094 22.49270264 13.88492188 23.11040527 14.30859375 23.74682617 C16.99271727 27.70302336 19.88739226 31.37139846 23 35 C22.3702124 34.97905273 21.7404248 34.95810547 21.09155273 34.93652344 C18.20703429 34.85279901 15.32277232 34.80116379 12.4375 34.75 C11.44685547 34.71648437 10.45621094 34.68296875 9.43554688 34.6484375 C2.9858787 34.56272762 -0.70629559 35.2766428 -6 39 C-6.99 39.495 -6.99 39.495 -8 40 C-6.93607834 30.98048504 -5.28677895 22.13712515 -3.4375 13.25 C-3.10455933 11.6422168 -3.10455933 11.6422168 -2.76489258 10.00195312 C-1.13013975 2.26027949 -1.13013975 2.26027949 0 0 Z " fill="#F8F8F8" transform="translate(166,234)"/>
<path d="M0 0 C1.41750563 0.11509661 2.83401169 0.24253658 4.25 0.375 C5.03890625 0.44460937 5.8278125 0.51421875 6.640625 0.5859375 C10.20098195 1.21076836 12.36423537 2.13542547 14.51953125 5.06640625 C17.61852249 11.04905098 18.9416822 15.41985476 17 22 C16 24.375 16 24.375 14 26 C11.74291726 26.89272675 9.49148598 27.62741231 7.15625 28.2890625 C4.7441468 28.97826603 4.7441468 28.97826603 2 31 C0.16261316 24.00490914 -0.24911312 17.65038156 -0.125 10.4375 C-0.11597656 9.42880859 -0.10695312 8.42011719 -0.09765625 7.38085938 C-0.07433356 4.92031543 -0.04160763 2.46029104 0 0 Z " fill="#F8F8F8" transform="translate(223,126)"/>
<path d="M0 0 C1.02867187 0.43119141 1.02867187 0.43119141 2.078125 0.87109375 C6.38704 2.53590182 10.80847397 3.78278655 15.234375 5.09765625 C18 6 18 6 19 7 C19.80610596 13.44884765 18.48016944 16.86993938 14.640625 22.08203125 C10.64001881 26.75893039 6.91256015 27.2254892 1 28 C1.00523682 27.40050537 1.01047363 26.80101074 1.01586914 26.18334961 C1.03681443 23.43474398 1.04971556 20.68615522 1.0625 17.9375 C1.07087891 16.99455078 1.07925781 16.05160156 1.08789062 15.08007812 C1.10581103 9.9369232 0.89259611 5.06741573 0 0 Z " fill="#F8F8F8" transform="translate(350,339)"/>
<path d="M0 0 C4.04301175 1.48518799 7.61146256 3.42877998 11.3125 5.625 C12.38113281 6.25664062 13.44976562 6.88828125 14.55078125 7.5390625 C15.76314453 8.26222656 15.76314453 8.26222656 17 9 C16.23883435 13.52855117 14.84594623 16.34092628 12 20 C7.94037956 22.57109294 3.44781258 22.79090852 -1.22265625 23.4375 C-4.19599906 23.85730575 -4.19599906 23.85730575 -7 26 C-5.74681885 19.73409427 -4.01621046 13.82737777 -1.90234375 7.796875 C-1.06594355 5.20439647 -0.47430085 2.67955532 0 0 Z " fill="#F6F6F6" transform="translate(347,381)"/>
<path d="M0 0 C4.32647198 1.95901441 7.35613672 4.03420508 10 8 C10.1953125 10.26171875 10.1953125 10.26171875 10.125 12.6875 C10.10695313 13.49574219 10.08890625 14.30398437 10.0703125 15.13671875 C10.04710937 15.75160156 10.02390625 16.36648437 10 17 C8 17.8125 8 17.8125 5 18 C2.81731223 16.90016316 0.87184235 15.6228007 -1.1328125 14.2265625 C-4.80715324 11.81287423 -8.40200278 11.73451466 -12.6875 11.4375 C-13.86699219 11.35371094 -15.04648437 11.26992188 -16.26171875 11.18359375 C-17.16535156 11.12300781 -18.06898438 11.06242187 -19 11 C-17.63310446 7.84930578 -16.14342115 5.99108226 -13.5 3.8125 C-12.8915625 3.30332031 -12.283125 2.79414062 -11.65625 2.26953125 C-8.04000342 -0.50235587 -4.40480047 -0.70076371 0 0 Z " fill="#F9F9F9" transform="translate(292,52)"/>
<path d="M0 0 C6.81561262 0.4782886 13.22639409 1.51086649 18.4375 6.1875 C20.49734894 9.8952281 20.71403118 12.78195988 21 17 C19.08404032 17.08133791 17.16708068 17.13934367 15.25 17.1875 C13.64898437 17.23970703 13.64898437 17.23970703 12.015625 17.29296875 C9 17 9 17 6.984375 15.42578125 C4.96345527 13.64349888 4.96345527 13.64349888 1.75 14.3125 C0.38875 14.6528125 0.38875 14.6528125 -1 15 C-1.02685412 12.68756208 -1.04632841 10.3750373 -1.0625 8.0625 C-1.07410156 6.77472656 -1.08570313 5.48695312 -1.09765625 4.16015625 C-1 1 -1 1 0 0 Z " fill="#FAFAFA" transform="translate(304,75)"/>
<path d="M0 0 C0.10957031 0.59167969 0.21914063 1.18335938 0.33203125 1.79296875 C0.49058594 2.58316406 0.64914062 3.37335937 0.8125 4.1875 C0.96332031 4.96480469 1.11414063 5.74210937 1.26953125 6.54296875 C2.10697659 9.35983034 3.4068272 11.54258551 5 14 C2.10452736 14.33675279 -0.79131072 14.66951734 -3.6875 15 C-4.50412109 15.09539062 -5.32074219 15.19078125 -6.16210938 15.2890625 C-14.42440257 16.22567873 -14.42440257 16.22567873 -18 16 C-19 15 -19 15 -19.3125 12.3125 C-18.91257277 8.07327132 -17.78205652 6.21006522 -15 3 C-9.80319786 0.00184492 -5.82004164 -0.30631798 0 0 Z " fill="#F4F4F4" transform="translate(262,50)"/>
<path d="M0 0 C4.38285395 1.79268613 8.62734731 3.62734731 12 7 C12.125 10.625 12.125 10.625 12 14 C10.38007835 14.86375896 8.75388139 15.71575854 7.125 16.5625 C6.22007812 17.03816406 5.31515625 17.51382813 4.3828125 18.00390625 C3.59648437 18.33261719 2.81015625 18.66132813 2 19 C1.34 18.67 0.68 18.34 0 18 C0.33 17.67 0.66 17.34 1 17 C1.58768383 14.71471005 1.58768383 14.71471005 1 12 C-0.70683758 9.63155437 -2.56786437 7.62328318 -5 6 C-6.32 6 -7.64 6 -9 6 C-9 7.32 -9 8.64 -9 10 C-8.34 10.33 -7.68 10.66 -7 11 C-7 11.66 -7 12.32 -7 13 C-9.91517292 11.92598892 -11.77810176 11.22189824 -14 9 C-14 5.69619498 -12.67675632 4.66136377 -10.375 2.25 C-6.83821865 -0.4486815 -4.46474293 -0.74412382 0 0 Z " fill="#F6F6F6" transform="translate(182,141)"/>
<path d="M0 0 C1 2 1 2 0.9375 5.0625 C0.98860878 8.28235296 1.29611977 10.56458828 2.0625 13.625 C2.90630134 17.07691456 3.1163428 19.53933731 2 23 C0.58461283 23.33872513 -0.83237963 23.67074624 -2.25 24 C-3.03890625 24.185625 -3.8278125 24.37125 -4.640625 24.5625 C-7 25 -7 25 -11 25 C-10.88628503 22.70774565 -10.75869036 20.41617612 -10.625 18.125 C-10.55539063 16.84882812 -10.48578125 15.57265625 -10.4140625 14.2578125 C-10 11 -10 11 -8 9 C-7.7525 8.21625 -7.505 7.4325 -7.25 6.625 C-5.58247293 3.12319316 -3.28878788 1.93037549 0 0 Z " fill="#F4F4F4" transform="translate(234,94)"/>
<path d="M0 0 C1.859375 0.18359375 1.859375 0.18359375 4 1 C5.265625 3.28515625 5.265625 3.28515625 6.25 6.0625 C6.58515625 6.98160156 6.9203125 7.90070313 7.265625 8.84765625 C7.50796875 9.55792969 7.7503125 10.26820312 8 11 C14.28908482 10.47519999 14.28908482 10.47519999 20 8 C20.66 8.66 21.32 9.32 22 10 C15.00166382 13.40049307 8.80778318 15.09208543 1 14 C-2.1875 12.5 -2.1875 12.5 -4 11 C-3.56179109 6.44262737 -3.14958831 3.42346555 0 0 Z " fill="#F0F0F0" transform="translate(263,95)"/>
<path d="M0 0 C4.3322929 -0.4247346 6.34962488 -0.47048413 9.9375 2.125 C12.30954571 5.43148796 12.46233492 7.0239197 12 11 C9.01405576 12.49297212 6.29146376 12.11755228 3 12 C2.34 11.67 1.68 11.34 1 11 C0.29396596 7.25801961 0 3.81207261 0 0 Z " fill="#EAEAEA" transform="translate(303,367)"/>
<path d="M0 0 C4.94938693 1.50431648 8.01238808 4.40382974 11.6875 7.875 C12.55858398 8.66970703 12.55858398 8.66970703 13.44726562 9.48046875 C16.25815309 12.09963094 18.62239271 14.32045536 20 18 C19.34 18.33 18.68 18.66 18 19 C16.02 16.69 14.04 14.38 12 12 C8.72226496 12.75150023 8.72226496 12.75150023 7 16 C3.07805532 10.71077185 0.28398017 6.67353409 0 0 Z " fill="#E7E7E7" transform="translate(111,330)"/>
<path d="M0 0 C0.66 0.99 1.32 1.98 2 3 C3.0209375 3.433125 3.0209375 3.433125 4.0625 3.875 C6 5 6 5 6.8125 7.5625 C6.874375 8.366875 6.93625 9.17125 7 10 C6 11 6 11 2.8125 11.3125 C-1.57825018 10.95260244 -3.57236502 9.6752273 -7 7 C-3.86206897 0 -3.86206897 0 0 0 Z " fill="#F3F3F3" transform="translate(201,440)"/>
<path d="M0 0 C0.99 0.33 1.98 0.66 3 1 C2.319375 2.7634375 2.319375 2.7634375 1.625 4.5625 C0.20671892 8.33338003 -0.94713178 12.11248657 -2 16 C-2.66 16 -3.32 16 -4 16 C-5.35606055 11.55829268 -4.59120114 9.2943828 -2.5625 5.1875 C-2.08941406 4.21167969 -1.61632812 3.23585937 -1.12890625 2.23046875 C-0.75636719 1.49441406 -0.38382813 0.75835937 0 0 Z " fill="#E4E4E4" transform="translate(161,221)"/>
<path d="M0 0 C0.66 0.33 1.32 0.66 2 1 C1.67 1.33 1.34 1.66 1 2 C1.66 2.66 2.32 3.32 3 4 C2.01 4.33 1.02 4.66 0 5 C0 6.32 0 7.64 0 9 C0.66 9.33 1.32 9.66 2 10 C2 10.66 2 11.32 2 12 C-0.91517292 10.92598892 -2.77810176 10.22189824 -5 8 C-4.74739753 4.21096292 -2.72150557 2.45813407 0 0 Z " fill="#E8E8E8" transform="translate(173,142)"/>
<path d="M0 0 C0.3403125 0.8353125 0.3403125 0.8353125 0.6875 1.6875 C3.79818253 7.16822635 8.91643464 10.51127867 14 14 C13.34 14.66 12.68 15.32 12 16 C10.38797778 14.78115393 8.78568423 13.54943515 7.1875 12.3125 C6.29417969 11.62800781 5.40085938 10.94351562 4.48046875 10.23828125 C1.95663167 7.96086606 0.41919359 6.08238888 -1 3 C-0.67 2.01 -0.34 1.02 0 0 Z " fill="#BDBDBD" transform="translate(151,422)"/>
<path d="M0 0 C1.32 0.66 2.64 1.32 4 2 C2.3767313 2.6708712 0.75132422 3.33657029 -0.875 4 C-2.23238281 4.556875 -2.23238281 4.556875 -3.6171875 5.125 C-6 6 -6 6 -8 6 C-8 5.34 -8 4.68 -8 4 C-6.865625 3.525625 -5.73125 3.05125 -4.5625 2.5625 C-1.24259834 1.36377917 -1.24259834 1.36377917 0 0 Z " fill="#D6D6D6" transform="translate(281,103)"/>
<path d="M0 0 C0 0.99 0 1.98 0 3 C-6.75 2.25 -6.75 2.25 -9 0 C-5.52176885 -1.15941038 -3.54104422 -0.70820884 0 0 Z " fill="#E8E8E8" transform="translate(253,441)"/>
<path d="M0 0 C3.26954202 0.56371414 4.82575883 1.49962266 7 4 C6.67 4.99 6.34 5.98 6 7 C5.01 7 4.02 7 3 7 C2.690625 6.21625 2.38125 5.4325 2.0625 4.625 C1.07124962 2.07669872 1.07124962 2.07669872 0 0 Z " fill="#D9D9D9" transform="translate(182,93)"/>
<path d="M0 0 C0.66 0.33 1.32 0.66 2 1 C-0.31 3.31 -2.62 5.62 -5 8 C-5.66 7.34 -6.32 6.68 -7 6 C-4.69 4.02 -2.38 2.04 0 0 Z " fill="#BCBCBC" transform="translate(166,123)"/>
</svg>
